<svg width="162" height="109" viewBox="0 0 162 109" fill="none" xmlns="http://www.w3.org/2000/svg">
<path d="M68.1418 37.9955C68.4805 37.5366 68.9449 37.1473 69.4997 36.9487C69.7755 36.8494 70.0689 36.7965 70.3634 36.7921C70.6579 36.7888 70.9524 36.834 71.2326 36.9222C71.793 37.0987 72.3048 37.4484 72.6589 37.9337C72.8343 38.1764 72.9689 38.4555 73.0406 38.7522C73.1134 39.049 73.1211 39.3633 73.067 39.6656C73.0108 39.9667 72.8983 40.2546 72.746 40.5116C72.5982 40.7686 72.4019 41.0124 72.1813 41.2121C71.9607 41.4139 71.7147 41.5827 71.4588 41.7261C71.3319 41.8011 71.1984 41.8607 71.0672 41.9247C70.9326 41.9787 70.7991 42.0394 70.6623 42.0835C70.1163 42.2787 69.5527 42.3946 68.9879 42.4652C68.4231 42.5358 67.855 42.56 67.2914 42.5545C66.7266 42.549 66.164 42.5126 65.6048 42.4519C65.0455 42.3924 64.4896 42.314 63.9391 42.2137C62.835 42.0195 61.7473 41.7559 60.6729 41.4514C60.4038 41.3764 60.1357 41.2981 59.8699 41.2154C59.6041 41.1371 59.3349 41.0499 59.0647 40.9628C58.7911 40.88 58.5341 40.7797 58.2749 40.6826C58.0145 40.5855 57.7608 40.4995 57.5027 40.4079C56.4725 40.0605 55.4289 39.7582 54.3733 39.5376C53.3188 39.3126 52.2521 39.1692 51.1899 39.1262C50.1276 39.0887 49.0687 39.1548 48.045 39.36C47.0214 39.5652 46.0363 39.9149 45.1296 40.4068C44.2229 40.8977 43.3967 41.532 42.6675 42.2688C41.9362 43.0057 41.3008 43.8429 40.7504 44.7397C40.2 45.6376 39.7268 46.5895 39.3241 47.5768C38.5079 49.548 37.9464 51.6394 37.5228 53.7606C37.5195 53.7782 37.5151 53.7959 37.5096 53.8135L37.503 53.8345C36.776 56.3793 35.9399 58.9208 34.8247 61.3784C34.2655 62.6061 33.6389 63.814 32.9054 64.9744C32.1729 66.1337 31.3423 67.2522 30.3595 68.2638C29.8697 68.7701 29.3436 69.2488 28.7777 69.6878C28.214 70.129 27.6095 70.5273 26.972 70.8725C26.3355 71.2211 25.6626 71.5101 24.9688 71.7406C24.2761 71.9723 23.5602 72.1388 22.8388 72.237C22.1151 72.3374 21.3959 72.3771 20.6646 72.3606C20.3017 72.3495 19.9509 72.3286 19.5979 72.2944C19.2461 72.2591 18.8942 72.2139 18.5445 72.1598C17.8441 72.0484 17.148 71.8951 16.4597 71.6932C15.7725 71.4891 15.0963 71.231 14.4367 70.9188C13.7781 70.6045 13.1362 70.2327 12.5317 69.7893C12.2294 69.5687 11.9404 69.3249 11.6613 69.0668C11.3823 68.8098 11.1186 68.5318 10.8716 68.2373L10.7789 68.127C10.748 68.0895 10.7248 68.0586 10.6984 68.0233L10.5417 67.8203L10.3796 67.6163L10.2042 67.3769C9.97586 67.0526 9.77399 66.7117 9.59971 66.3565C9.25114 65.6473 9.0228 64.8884 8.90257 64.125C8.6621 62.5929 8.86176 61.0508 9.37689 59.6521C9.89092 58.2512 10.7315 56.976 11.8423 55.9689C12.9508 54.9662 14.3584 54.2515 15.8475 54.0231C16.2181 53.9658 16.5921 53.9349 16.9638 53.9316C17.1568 53.9272 17.3168 53.9382 17.4977 53.9437C17.6731 53.947 17.8893 53.9625 18.0878 53.9933C18.4916 54.054 18.892 54.172 19.2637 54.3474C19.6365 54.5217 19.9796 54.7523 20.2807 55.0214C20.883 55.5641 21.3044 56.259 21.536 57.0003C21.7655 57.7416 21.8151 58.5512 21.5846 59.33C21.4687 59.7161 21.2768 60.0933 21.001 60.4055C20.7297 60.7199 20.3833 60.967 20.0149 61.1214C19.8318 61.2008 19.6432 61.2593 19.4545 61.2979C19.2659 61.3398 19.0784 61.3607 18.892 61.3718C18.5202 61.3894 18.1595 61.3596 17.8121 61.2957L17.7668 61.2868C17.7624 61.2857 17.7569 61.2846 17.7525 61.2824C17.3907 61.1556 17.0421 60.9769 16.7366 60.7364C16.431 60.4959 16.1663 60.1882 16.0019 59.8253C15.8343 59.4635 15.7901 59.0465 15.8685 58.6693C15.9435 58.2898 16.1299 57.9556 16.3571 57.6776C16.4023 57.6224 16.484 57.6147 16.5391 57.6599C16.5888 57.7008 16.5998 57.7703 16.5689 57.8243L16.5678 57.8254C16.4034 58.11 16.292 58.4189 16.2766 58.7233C16.2589 59.0278 16.3406 59.3212 16.4961 59.5672C16.6494 59.8153 16.8745 60.0194 17.1315 60.1727C17.3896 60.3272 17.6786 60.4309 17.9775 60.4948L17.9169 60.4827C18.2202 60.5003 18.518 60.4926 18.7993 60.4463C18.9394 60.422 19.0762 60.3911 19.2041 60.347C19.3332 60.3051 19.4545 60.2511 19.5648 60.186C20.016 59.9345 20.2829 59.5087 20.3811 59.0145C20.4793 58.5192 20.3988 57.9655 20.1914 57.4757C19.9851 56.9827 19.6509 56.5514 19.2483 56.2502C18.8456 55.9447 18.3746 55.7759 17.8816 55.7439C17.8198 55.7406 17.758 55.7373 17.6951 55.7384C17.6367 55.7362 17.5628 55.7406 17.49 55.7439C17.3422 55.7505 17.1756 55.7516 17.041 55.766C16.7575 55.7891 16.4785 55.8322 16.2049 55.8961C15.6578 56.023 15.136 56.2315 14.6518 56.5083C14.1675 56.7852 13.7241 57.1349 13.3292 57.5342C12.535 58.3328 11.9515 59.3476 11.6073 60.4209C11.2653 61.4964 11.1804 62.6436 11.3834 63.6993C11.4849 64.2276 11.6625 64.7295 11.9051 65.1906C12.0265 65.4211 12.1655 65.6418 12.3199 65.8502L12.439 66.0036L12.5879 66.1812C12.685 66.2981 12.7898 66.436 12.8758 66.5286C13.0534 66.7338 13.2454 66.929 13.4516 67.1122C13.6579 67.2964 13.873 67.4718 14.1035 67.6339C14.558 67.9648 15.0566 68.2516 15.5817 68.4998C16.1078 68.748 16.6616 68.9521 17.2296 69.1253C17.7977 69.2995 18.3824 69.4363 18.9758 69.5389C19.2725 69.5885 19.5715 69.6316 19.8704 69.6646C20.1693 69.6955 20.4738 69.7242 20.765 69.7408C21.3441 69.7683 21.9386 69.7529 22.5156 69.6878C23.6738 69.561 24.8 69.2389 25.849 68.716C26.3741 68.4568 26.8804 68.1501 27.3624 67.8005C27.8467 67.453 28.3078 67.0658 28.7446 66.6433C29.1825 66.2231 29.5962 65.7708 29.9877 65.2943C30.3793 64.8178 30.7522 64.3192 31.0985 63.7985C31.7946 62.7594 32.4112 61.652 32.9671 60.507C34.0757 58.2126 34.9438 55.7781 35.7149 53.3006L35.6961 53.3745C36.1892 51.1772 36.8279 48.9942 37.7523 46.9017C38.2155 45.8571 38.7561 44.839 39.3892 43.8705C40.0224 42.9031 40.7559 41.9886 41.6064 41.1812C42.4546 40.3726 43.4198 39.6744 44.4722 39.1427C45.5234 38.611 46.6551 38.247 47.8045 38.0518C48.9539 37.8543 50.1166 37.8223 51.2593 37.9018C52.4021 37.9856 53.5273 38.1775 54.6248 38.45C55.7235 38.718 56.7946 39.0688 57.8447 39.4626C58.105 39.5641 58.3708 39.6645 58.6245 39.7693C58.8783 39.874 59.1331 39.9833 59.3868 40.0682C59.6405 40.1597 59.8931 40.2502 60.1545 40.3373C60.4126 40.4267 60.6718 40.5127 60.9333 40.5944C61.9746 40.9253 63.0269 41.2176 64.0925 41.4415C64.6241 41.5562 65.1602 41.65 65.6974 41.725C66.2346 41.8011 66.774 41.8541 67.3134 41.8761C67.8528 41.8993 68.3922 41.8938 68.925 41.8441C69.4578 41.7956 69.9851 41.704 70.4858 41.543C70.7362 41.4647 70.98 41.3676 71.2095 41.2485C71.44 41.1304 71.6573 40.9926 71.8515 40.8293C72.0456 40.6649 72.2099 40.4796 72.3434 40.2623C72.4791 40.0494 72.5762 39.8167 72.6291 39.5762C72.7339 39.0942 72.6214 38.579 72.3346 38.1632C72.05 37.7462 71.6143 37.4252 71.1278 37.2565C70.8841 37.1726 70.627 37.1252 70.3689 37.1208C70.1108 37.1175 69.8527 37.1561 69.6056 37.2366C69.1114 37.3977 68.6801 37.733 68.3525 38.1511C68.3084 38.2073 68.2279 38.2172 68.1716 38.1731C68.1109 38.1301 68.101 38.0507 68.1418 37.9955Z" fill="#E29727"/>
<path d="M93.3944 38.1522C93.0657 37.7341 92.6355 37.3988 92.1413 37.2377C91.8953 37.1572 91.6361 37.1186 91.378 37.1219C91.1199 37.1274 90.8628 37.1737 90.6191 37.2576C90.1326 37.4263 89.6969 37.7473 89.4123 38.1643C89.1255 38.5801 89.013 39.0964 89.1178 39.5773C89.1707 39.8178 89.2678 40.0505 89.4035 40.2634C89.5369 40.4818 89.7013 40.6661 89.8954 40.8304C90.0885 40.9937 90.3069 41.1315 90.5374 41.2496C90.7669 41.3687 91.0107 41.4647 91.261 41.5441C91.7618 41.7051 92.2891 41.7967 92.8219 41.8452C93.3547 41.8938 93.8941 41.9004 94.4335 41.8772C94.9729 41.8541 95.5123 41.8022 96.0495 41.7261C96.5867 41.6511 97.1228 41.5573 97.6544 41.4426C98.72 41.2198 99.7723 40.9275 100.814 40.5955C101.074 40.5138 101.333 40.4278 101.592 40.3384C101.853 40.2524 102.106 40.1608 102.36 40.0693C102.614 39.9844 102.868 39.8752 103.122 39.7704C103.376 39.6656 103.642 39.5652 103.902 39.4637C104.952 39.0699 106.023 38.7191 107.122 38.4511C108.22 38.1786 109.344 37.9867 110.486 37.9029C111.629 37.8234 112.792 37.8554 113.941 38.0529C115.09 38.2481 116.221 38.611 117.274 39.1438C118.326 39.6744 119.291 40.3737 120.139 41.1823C120.989 41.9908 121.722 42.9053 122.357 43.8716C122.99 44.839 123.53 45.8582 123.994 46.9028C124.918 48.9953 125.557 51.1783 126.05 53.3756L126.031 53.3017C126.802 55.7792 127.671 58.2137 128.779 60.5081C129.335 61.6531 129.95 62.7605 130.647 63.7996C130.994 64.3203 131.366 64.8189 131.758 65.2954C132.15 65.7719 132.563 66.2253 133.001 66.6444C133.438 67.0658 133.899 67.4541 134.383 67.8016C134.865 68.1512 135.372 68.4579 135.897 68.7171C136.946 69.24 138.072 69.5621 139.23 69.6889C139.807 69.754 140.402 69.7694 140.981 69.7419C141.272 69.7253 141.576 69.6966 141.875 69.6658C142.175 69.6316 142.473 69.5896 142.77 69.54C143.363 69.4374 143.948 69.3006 144.516 69.1264C145.084 68.9532 145.638 68.7491 146.164 68.5009C146.689 68.2527 147.188 67.9659 147.642 67.635C147.873 67.4729 148.088 67.2975 148.294 67.1133C148.5 66.9301 148.693 66.7349 148.87 66.5297C148.956 66.4371 149.061 66.2992 149.158 66.1823L149.307 66.0047L149.426 65.8513C149.581 65.6429 149.719 65.4233 149.841 65.1917C150.084 64.7306 150.261 64.2276 150.362 63.7004C150.565 62.6447 150.48 61.4975 150.139 60.422C149.794 59.3476 149.211 58.3328 148.417 57.5353C148.022 57.136 147.578 56.7863 147.094 56.5094C146.61 56.2326 146.088 56.0241 145.541 55.8972C145.267 55.8344 144.988 55.7913 144.705 55.7671C144.57 55.7527 144.403 55.7516 144.256 55.745C144.183 55.7417 144.109 55.7384 144.051 55.7395C143.988 55.7384 143.926 55.7417 143.864 55.745C143.371 55.777 142.9 55.9458 142.498 56.2513C142.095 56.5536 141.76 56.9849 141.554 57.4768C141.347 57.9677 141.267 58.5203 141.365 59.0156C141.462 59.5098 141.73 59.9356 142.181 60.1871C142.291 60.2522 142.413 60.3051 142.542 60.3481C142.67 60.3934 142.806 60.4242 142.946 60.4474C143.228 60.4937 143.526 60.5015 143.829 60.4838L143.768 60.4959C144.066 60.432 144.356 60.3272 144.614 60.1738C144.871 60.0205 145.096 59.8164 145.25 59.5683C145.405 59.3212 145.487 59.0289 145.469 58.7244C145.454 58.42 145.342 58.1111 145.178 57.8265L145.177 57.8254C145.142 57.7636 145.163 57.6842 145.224 57.6489C145.279 57.6169 145.349 57.6302 145.389 57.6787C145.617 57.9567 145.802 58.2909 145.877 58.6704C145.956 59.0476 145.912 59.4646 145.744 59.8264C145.58 60.1893 145.315 60.497 145.009 60.7375C144.703 60.9791 144.355 61.1567 143.993 61.2835C143.989 61.2846 143.983 61.2868 143.979 61.2868L143.933 61.2957C143.585 61.3596 143.224 61.3894 142.853 61.3718C142.667 61.3618 142.479 61.3398 142.29 61.2979C142.102 61.2582 141.913 61.2008 141.73 61.1214C141.361 60.9669 141.015 60.7199 140.744 60.4055C140.468 60.0933 140.276 59.7161 140.16 59.33C139.928 58.5512 139.979 57.7416 140.209 57.0003C140.44 56.259 140.862 55.563 141.464 55.0214C141.765 54.7512 142.108 54.5217 142.481 54.3474C142.853 54.172 143.253 54.054 143.657 53.9933C143.855 53.9625 144.072 53.947 144.247 53.9437C144.428 53.9382 144.588 53.9272 144.781 53.9316C145.153 53.9349 145.527 53.9647 145.897 54.0231C147.386 54.2504 148.793 54.9662 149.902 55.9689C151.013 56.976 151.854 58.2512 152.368 59.6521C152.884 61.0508 153.083 62.594 152.842 64.125C152.723 64.8884 152.494 65.6473 152.145 66.3565C151.971 66.7106 151.769 67.0526 151.54 67.3769L151.365 67.6163L151.203 67.8203L151.046 68.0233C151.019 68.0575 150.997 68.0895 150.966 68.127L150.873 68.2373C150.627 68.5318 150.362 68.8098 150.083 69.0668C149.805 69.3249 149.515 69.5676 149.213 69.7893C148.609 70.2327 147.967 70.6045 147.308 70.9188C146.648 71.231 145.972 71.4891 145.285 71.6932C144.597 71.894 143.901 72.0473 143.2 72.1598C142.849 72.2138 142.499 72.2591 142.147 72.2944C141.794 72.3286 141.444 72.3495 141.08 72.3605C140.349 72.376 139.63 72.3363 138.906 72.237C138.185 72.1388 137.469 71.9723 136.776 71.7406C136.082 71.5112 135.409 71.2211 134.773 70.8725C134.135 70.5272 133.531 70.1279 132.967 69.6878C132.401 69.2499 131.875 68.7701 131.385 68.2638C130.402 67.2533 129.571 66.1337 128.839 64.9744C128.106 63.8151 127.479 62.6072 126.92 61.3784C125.805 58.9208 124.969 56.3782 124.242 53.8345L124.236 53.8146C124.231 53.797 124.226 53.7782 124.223 53.7606C123.799 51.6394 123.238 49.548 122.422 47.5768C122.018 46.5895 121.546 45.6376 120.995 44.7397C120.445 43.8429 119.81 43.0046 119.078 42.2688C118.348 41.532 117.523 40.8977 116.616 40.4068C115.709 39.9149 114.724 39.5652 113.701 39.36C112.677 39.1548 111.618 39.0887 110.556 39.1262C109.494 39.1681 108.427 39.3126 107.372 39.5376C106.317 39.7582 105.273 40.0605 104.243 40.4079C103.985 40.4984 103.731 40.5855 103.471 40.6826C103.212 40.7797 102.955 40.88 102.681 40.9628C102.412 41.0499 102.143 41.1371 101.876 41.2154C101.609 41.297 101.342 41.3764 101.073 41.4514C99.9985 41.7548 98.9108 42.0195 97.8067 42.2137C97.2551 42.314 96.6992 42.3924 96.141 42.4519C95.5829 42.5126 95.0192 42.549 94.4544 42.5545C93.8897 42.56 93.3227 42.5358 92.7579 42.4652C92.1931 42.3946 91.6295 42.2787 91.0835 42.0835C90.9467 42.0383 90.8132 41.9787 90.6786 41.9247C90.5474 41.8607 90.4139 41.8011 90.287 41.7261C90.0311 41.5827 89.7851 41.4139 89.5645 41.2121C89.3439 41.0124 89.1476 40.7697 88.9998 40.5116C88.8464 40.2546 88.735 39.9667 88.6788 39.6656C88.6247 39.3644 88.6324 39.0501 88.7052 38.7522C88.7769 38.4544 88.9115 38.1764 89.0869 37.9337C89.441 37.4484 89.9517 37.0987 90.5132 36.9222C90.7944 36.834 91.0879 36.7899 91.3824 36.7921C91.6769 36.7965 91.9703 36.8494 92.2461 36.9487C92.8009 37.1484 93.2653 37.5377 93.604 37.9955C93.6459 38.0529 93.6349 38.1334 93.5775 38.1753C93.5168 38.2172 93.4374 38.2062 93.3944 38.1522Z" fill="#E29727"/>
<path d="M9.06251 68.0222C8.27933 67.3835 7.45975 66.8088 6.59825 66.3499L6.27505 66.1823L5.94744 66.0289C5.83934 65.976 5.72793 65.9352 5.61873 65.8877C5.50952 65.8392 5.39811 65.7995 5.2878 65.7609C5.1775 65.7201 5.06829 65.677 4.95578 65.6462C4.84437 65.6142 4.73517 65.5734 4.62376 65.548L4.29173 65.4653L3.95971 65.4068C3.73909 65.3781 3.51848 65.3605 3.30228 65.3737L3.14233 65.3792C3.0949 65.3858 3.04747 65.3902 3.00224 65.3991C2.91179 65.4156 2.82575 65.4333 2.74854 65.4608C2.5919 65.5105 2.46395 65.5656 2.34481 65.6296C2.22568 65.6936 2.10545 65.7653 1.97418 65.8646C1.94109 65.8888 1.9091 65.9175 1.87491 65.944L1.77453 66.0344L1.67304 66.1326C1.64547 66.1624 1.61348 66.1922 1.5859 66.2231C1.47229 66.3466 1.36749 66.4834 1.29138 66.6279C1.21417 66.7735 1.1535 66.9312 1.14909 67.1221C1.14026 67.3151 1.19762 67.5423 1.31675 67.7916L1.31786 67.7949C1.34212 67.8457 1.32117 67.9075 1.27042 67.9317C1.25167 67.9405 1.23182 67.9439 1.21196 67.9405C0.918545 67.9019 0.624026 67.7453 0.396793 67.4828C0.282074 67.3526 0.193828 67.196 0.126541 67.0294C0.0967582 66.9456 0.0658724 66.8584 0.0493264 66.7713C0.0405018 66.7272 0.0294709 66.683 0.0228525 66.6389C0.0162341 66.5948 0.012925 66.5507 0.00851269 66.5055C-0.0245794 66.1459 0.0416048 65.7973 0.15853 65.4741C0.185004 65.3902 0.224714 65.3163 0.25891 65.2369C0.295311 65.163 0.331712 65.0935 0.369217 65.0218C0.41003 64.9512 0.455256 64.8817 0.498276 64.8122C0.547914 64.7438 0.596449 64.6755 0.649396 64.6082C0.865598 64.3423 1.15019 64.1019 1.48001 63.9353C1.80872 63.7665 2.17384 63.6849 2.51579 63.6684C2.68787 63.6606 2.85443 63.6695 3.01658 63.6849C3.09711 63.6937 3.17543 63.707 3.25374 63.718L3.46884 63.7654C3.75564 63.8217 4.0303 63.9077 4.30166 63.9871C5.38267 64.3291 6.30814 64.9181 7.11228 65.5965C7.9109 66.2837 8.61356 67.0526 9.19488 67.8975C9.22356 67.9394 9.21363 67.9968 9.17171 68.0255C9.13862 68.0509 9.0934 68.0475 9.06251 68.0222Z" fill="#E29727"/>
<path d="M30.7389 62.873C29.7759 64.2045 28.6607 65.4465 27.3326 66.4834C26.6642 66.9941 25.9406 67.4552 25.1364 67.7938C24.3334 68.1248 23.4399 68.3354 22.5122 68.2902C22.2762 68.277 22.0611 68.2527 21.8416 68.2229C21.622 68.1921 21.4025 68.1523 21.1819 68.1038C20.744 68.0001 20.3006 67.8666 19.8748 67.6482C19.449 67.4342 19.0342 67.1386 18.6978 66.7195C18.5312 66.511 18.3878 66.2694 18.2875 66.0036C18.1882 65.7388 18.1308 65.4498 18.1297 65.1652C18.1308 65.0229 18.1397 64.8828 18.1628 64.7461C18.1827 64.617 18.2224 64.4548 18.2731 64.3225C18.3746 64.0511 18.5169 63.8261 18.6791 63.6264C19.0023 63.2282 19.4126 62.9304 19.8792 62.7473C20.113 62.6591 20.3612 62.6006 20.6127 62.5907C20.7407 62.5851 20.8598 62.5896 20.9823 62.6061C21.1036 62.6204 21.226 62.6458 21.3463 62.6855C21.5834 62.7627 21.8173 62.9028 21.9706 63.1025C22.1306 63.2988 22.199 63.536 22.2089 63.7544C22.2111 63.7952 22.1791 63.8294 22.1383 63.8305C22.1096 63.8316 22.0853 63.8173 22.0721 63.7941L22.071 63.7908C21.9706 63.6176 21.8449 63.4775 21.6982 63.3992C21.5515 63.3209 21.3937 63.2922 21.2316 63.2955C21.0716 63.2977 20.8962 63.3341 20.744 63.3871C20.5918 63.4422 20.4495 63.5205 20.3182 63.6154C20.0557 63.804 19.834 64.0622 19.6862 64.3324C19.6134 64.467 19.5604 64.606 19.5372 64.7251C19.5251 64.788 19.5251 64.8266 19.524 64.9016C19.5218 64.9678 19.5273 65.0329 19.535 65.0946C19.5759 65.3417 19.6806 65.5612 19.8627 65.7807C20.0425 65.9991 20.2928 66.2054 20.5785 66.3896C20.8664 66.5716 21.193 66.7305 21.5393 66.8551C21.7125 66.9169 21.8912 66.9698 22.0732 67.0184C22.2552 67.0669 22.4449 67.1 22.6159 67.1276C23.323 67.2258 24.0753 67.1199 24.8033 66.8871C25.5335 66.6566 26.245 66.3047 26.9201 65.8855C28.2769 65.0461 29.498 63.9552 30.6308 62.7804C30.6584 62.7517 30.7036 62.7506 30.7323 62.7782C30.7566 62.8036 30.7588 62.8444 30.7389 62.873Z" fill="#E29727"/>
<path d="M131.113 62.7815C132.246 63.9563 133.467 65.0472 134.823 65.8866C135.499 66.3058 136.21 66.6577 136.94 66.8882C137.668 67.121 138.421 67.2257 139.128 67.1287C139.299 67.1011 139.488 67.068 139.67 67.0195C139.852 66.972 140.031 66.9191 140.204 66.8562C140.551 66.7316 140.877 66.5727 141.165 66.3907C141.451 66.2065 141.701 66.0002 141.881 65.7818C142.062 65.5623 142.168 65.3417 142.209 65.0957C142.215 65.0328 142.222 64.9689 142.22 64.9027C142.217 64.8277 142.218 64.7891 142.206 64.7262C142.183 64.6071 142.13 64.4681 142.057 64.3335C141.91 64.0633 141.688 63.8051 141.425 63.6165C141.294 63.5227 141.151 63.4433 141 63.3882C140.848 63.3352 140.672 63.2988 140.512 63.2966C140.349 63.2933 140.191 63.322 140.045 63.4003C139.899 63.4786 139.773 63.6187 139.673 63.7919L139.671 63.7941C139.652 63.8294 139.606 63.8415 139.571 63.8206C139.547 63.8062 139.534 63.7798 139.535 63.7533C139.545 63.5349 139.613 63.2966 139.773 63.1014C139.927 62.9006 140.16 62.7605 140.397 62.6844C140.516 62.6436 140.639 62.6182 140.761 62.605C140.884 62.5884 141.003 62.584 141.131 62.5895C141.383 62.5995 141.631 62.6579 141.864 62.7462C142.33 62.9293 142.741 63.2271 143.065 63.6253C143.227 63.825 143.369 64.0511 143.47 64.3214C143.521 64.4537 143.561 64.6159 143.581 64.7449C143.603 64.8817 143.613 65.0218 143.614 65.1641C143.613 65.4487 143.555 65.7366 143.456 66.0024C143.356 66.2683 143.212 66.5099 143.046 66.7183C142.709 67.1364 142.295 67.432 141.869 67.6471C141.443 67.8655 141 68.0001 140.562 68.1027C140.342 68.1512 140.122 68.1909 139.902 68.2218C139.682 68.2505 139.467 68.2759 139.231 68.2891C138.304 68.3343 137.411 68.1248 136.607 67.7927C135.803 67.4541 135.079 66.993 134.41 66.4823C133.082 65.4443 131.967 64.2033 131.004 62.8719C130.98 62.8399 130.987 62.7947 131.02 62.7716C131.048 62.7517 131.088 62.7561 131.113 62.7815Z" fill="#E29727"/>
<path d="M42.7668 38.3242C42.0344 38.6684 41.3185 39.0467 40.6357 39.4703C39.9507 39.8906 39.2976 40.3572 38.6932 40.8756C37.4787 41.9114 36.4616 43.1469 35.5968 44.4838C35.1589 45.1445 34.7817 45.8328 34.4629 46.5454C34.1507 47.2613 33.897 48.0037 33.6819 48.7692C33.4602 49.5325 33.265 50.3146 33.0686 51.1022C33.0179 51.3018 32.9726 51.4916 32.9175 51.699L32.8303 52.0144L32.7311 52.3277C32.591 52.7436 32.4211 53.1528 32.2181 53.5499C32.0174 53.9481 31.778 54.3331 31.4989 54.6949C31.221 55.0567 30.9077 55.3998 30.5525 55.7053C30.1973 56.0109 29.8024 56.2745 29.3821 56.4918C28.9619 56.7135 28.5273 56.8746 28.0728 56.9981C27.1683 57.2297 26.1788 57.3003 25.1795 56.9992C24.6842 56.8503 24.1944 56.5911 23.783 56.2282C23.3693 55.8675 23.0538 55.4031 22.8487 54.9243C22.7461 54.6783 22.66 54.4103 22.6181 54.1423C22.5696 53.8731 22.5564 53.5995 22.5751 53.3304C22.6126 52.7921 22.7759 52.2692 23.0494 51.8115C23.1829 51.5809 23.3539 51.3724 23.5392 51.1816L23.6837 51.0437C23.7344 50.9996 23.7874 50.9588 23.8392 50.9169C23.944 50.8319 24.0521 50.7702 24.1591 50.6974C24.6025 50.4337 25.1309 50.255 25.6791 50.2683C26.2252 50.2716 26.7635 50.4801 27.1639 50.8132C27.3624 50.982 27.5334 51.1739 27.668 51.3835C27.7915 51.592 27.9073 51.8026 27.9768 52.0442C28.0463 52.2825 28.0849 52.5384 28.0574 52.7998C28.0287 53.0601 27.9283 53.3216 27.7573 53.5179C27.5886 53.7165 27.3712 53.8455 27.1528 53.9205L26.9874 53.9658C26.9322 53.9768 26.8771 53.9823 26.8219 53.9911C26.7138 54.0121 26.6035 54.0011 26.4976 54.0044C26.4469 54.0066 26.405 53.9669 26.4039 53.9161C26.4028 53.8753 26.4281 53.84 26.4645 53.8268L26.4767 53.8224C26.6642 53.7573 26.8462 53.6922 26.9907 53.5841C27.1363 53.4815 27.2499 53.3547 27.3095 53.2157C27.369 53.0767 27.3856 52.9333 27.3657 52.7877C27.3437 52.641 27.283 52.4954 27.2025 52.3586C27.1275 52.2196 27.0139 52.0894 26.9024 51.9692C26.7888 51.8567 26.6653 51.7651 26.5362 51.6934C26.2737 51.5578 25.9957 51.5114 25.7299 51.5578C25.4629 51.5964 25.2092 51.7309 24.9765 51.9129C24.8607 52.0166 24.7581 52.1093 24.6765 52.2218C24.5937 52.3343 24.5165 52.4512 24.4636 52.5825C24.351 52.8384 24.2915 53.1197 24.3036 53.3922C24.3014 53.4606 24.3146 53.5278 24.3191 53.5951C24.3323 53.6613 24.3389 53.7275 24.3599 53.7915C24.3908 53.9227 24.4426 54.0408 24.5055 54.1643C24.7724 54.6817 25.1761 55.0071 25.7398 55.1835C25.8799 55.2255 26.0277 55.263 26.181 55.2872C26.3355 55.3104 26.4954 55.3236 26.6587 55.3258C26.9852 55.3336 27.3249 55.306 27.6614 55.2387C27.9967 55.1758 28.3386 55.0799 28.6475 54.9453C28.9597 54.814 29.2597 54.6497 29.5377 54.4445C30.0925 54.0341 30.5679 53.4859 30.9331 52.8517C31.1162 52.5351 31.2761 52.1997 31.414 51.8523L31.5122 51.5897L31.6004 51.3217C31.6589 51.1397 31.7184 50.9367 31.778 50.7448C32.0152 49.9671 32.2523 49.184 32.5237 48.3997C32.7961 47.6176 33.1171 46.8355 33.5021 46.0843C33.8926 45.3364 34.346 44.6228 34.8479 43.9576C35.8439 42.635 37.0055 41.4161 38.3413 40.4333C39.0075 39.9402 39.7135 39.5089 40.4437 39.1317C41.1762 38.7577 41.9296 38.4367 42.694 38.1533C42.7414 38.1356 42.7933 38.1599 42.8109 38.2073C42.8297 38.2547 42.8087 38.3044 42.7668 38.3242Z" fill="#E29727"/>
<path d="M60.9972 42.9615C58.4227 42.4288 55.8569 41.821 53.2802 41.5904C52.6371 41.5331 51.9951 41.4989 51.3575 41.4978C50.731 41.5 50.1088 41.5562 49.5077 41.6765C48.9065 41.7945 48.3263 41.9765 47.7979 42.2357C47.2706 42.496 46.7952 42.8314 46.4147 43.2417C46.2227 43.4469 46.0562 43.6708 45.9117 43.9069C45.776 44.1297 45.68 44.3691 45.6149 44.6183C45.4859 45.1169 45.4969 45.6486 45.6359 46.1229C45.7065 46.3601 45.8003 46.584 45.926 46.7859C46.0495 46.9899 46.1952 47.1675 46.3683 47.333C46.7136 47.6617 47.1603 47.922 47.6424 48.0743C47.8828 48.1504 48.1332 48.2022 48.3836 48.2166C48.6329 48.2353 48.8877 48.2199 49.1249 48.1724C49.5915 48.0831 50.068 47.8217 50.3559 47.4742C50.4993 47.2999 50.5964 47.1058 50.6284 46.894C50.6637 46.7219 50.6129 46.488 50.4784 46.2752C50.2125 45.8505 49.6588 45.4843 49.062 45.6795L49.0576 45.6806C49.0091 45.696 48.9561 45.6696 48.9407 45.621C48.9286 45.5857 48.9407 45.5482 48.9661 45.524C49.0984 45.4015 49.2694 45.3078 49.4547 45.2559C49.6411 45.2052 49.8397 45.1964 50.0338 45.2184C50.4243 45.2647 50.795 45.439 51.1038 45.7093C51.256 45.8472 51.3961 46.0093 51.5053 46.2024C51.6156 46.3943 51.6928 46.6193 51.7204 46.8609C51.7723 47.3076 51.6697 47.7676 51.4678 48.1515C51.3685 48.3456 51.2472 48.5221 51.1137 48.6854C50.977 48.8464 50.828 48.992 50.6681 49.1233C50.3482 49.3869 49.9831 49.5877 49.5882 49.7311C48.8061 50.0046 47.9667 50.0278 47.1791 49.8491C46.3915 49.6693 45.6447 49.2843 45.0458 48.6997C44.7479 48.4074 44.4854 48.061 44.2946 47.6893C44.1037 47.3153 43.9647 46.9193 43.8908 46.5156C43.743 45.7071 43.8224 44.882 44.0949 44.1308C44.2317 43.7557 44.4214 43.3983 44.6498 43.0729C44.8693 42.763 45.1208 42.4773 45.3943 42.2181C45.9414 41.6985 46.5867 41.3069 47.2552 41.0278C47.927 40.751 48.623 40.58 49.3179 40.4918C50.014 40.4068 50.71 40.398 51.395 40.4465C52.0701 40.4995 52.7364 40.5844 53.396 40.6958C56.0334 41.158 58.5418 41.9798 61.0425 42.7861C61.091 42.8016 61.1164 42.8534 61.1009 42.9009C61.0888 42.945 61.0425 42.9704 60.9972 42.9615Z" fill="#E29727"/>
<path d="M40.5265 47.7477C40.1602 49.2909 39.847 50.8474 39.5899 52.4071C39.4631 53.187 39.355 53.9691 39.2822 54.75C39.2436 55.1394 39.2138 55.5332 39.2171 55.906C39.2182 56.2844 39.2579 56.6617 39.3186 57.0323C39.3793 57.404 39.4719 57.7691 39.5922 58.1221C39.7124 58.4751 39.8514 58.8215 40.0268 59.1469C40.1999 59.4734 40.3985 59.7833 40.6202 60.0734C40.8474 60.3591 41.0934 60.6272 41.3615 60.8555C41.6295 61.0872 41.9285 61.2846 42.2417 61.4556C42.555 61.6266 42.8848 61.7678 43.2235 61.8759C43.903 62.0877 44.621 62.177 45.3094 62.1108C45.6524 62.0777 45.9878 62.0082 46.3032 61.899C46.6165 61.7865 46.9121 61.6387 47.1725 61.4501C47.6953 61.075 48.0814 60.55 48.2932 59.9576C48.3991 59.6609 48.4664 59.3498 48.4961 59.0344C48.5237 58.7189 48.5149 58.399 48.4686 58.089C48.4575 58.0118 48.4443 57.9346 48.4266 57.8585L48.4145 57.8022L48.4046 57.7625C48.3991 57.736 48.3891 57.7107 48.3814 57.6842C48.3461 57.5816 48.2965 57.4823 48.2347 57.3853C48.1707 57.2893 48.0924 57.1977 48.0009 57.1106C47.9082 57.0246 47.8023 56.9451 47.6865 56.8734C47.4537 56.7323 47.1791 56.623 46.8879 56.5668C46.5989 56.5127 46.279 56.494 46.0098 56.537C45.4461 56.6175 44.8571 56.9507 44.5107 57.415C44.3398 57.6467 44.2295 57.9015 44.2217 58.1618C44.2129 58.453 44.289 58.7476 44.46 59.0024C44.6288 59.2594 44.9001 59.4734 45.2244 59.6102C45.3866 59.6797 45.562 59.7282 45.7451 59.7525C45.9282 59.7833 46.1179 59.7833 46.3121 59.769H46.3154C46.3661 59.7657 46.4102 59.8032 46.4146 59.855C46.418 59.8936 46.3959 59.9289 46.3617 59.9455C46.1731 60.0359 45.9668 60.0988 45.7528 60.1352C45.5388 60.1683 45.316 60.1749 45.0932 60.1496C44.6475 60.0988 44.192 59.9135 43.8257 59.5815C43.6448 59.4149 43.486 59.2164 43.3669 58.9935C43.2477 58.7696 43.1628 58.5325 43.1165 58.2799C43.0194 57.746 43.1385 57.1977 43.368 56.7477C43.5952 56.291 43.9294 55.9127 44.3144 55.6038C44.7027 55.2994 45.1516 55.0655 45.6436 54.9309C45.8885 54.8636 46.1532 54.825 46.3926 54.8085C46.6386 54.7908 46.8868 54.7953 47.1338 54.8228C47.628 54.8769 48.1233 55.0148 48.5855 55.2585C49.0455 55.5012 49.4768 55.8531 49.7989 56.3186C49.9588 56.5502 50.0912 56.8095 50.1816 57.083C50.2026 57.1514 50.2257 57.2198 50.2423 57.2904L50.2677 57.3952L50.2853 57.4845C50.3085 57.6037 50.3272 57.7228 50.3416 57.8419C50.4011 58.3196 50.3912 58.8005 50.3173 59.2726C50.2456 59.7447 50.1066 60.2069 49.9037 60.6426C49.5032 61.5163 48.8326 62.2686 48.0207 62.7561C47.6148 62.9999 47.1835 63.1885 46.7389 63.3143C46.2944 63.4378 45.8433 63.5051 45.3943 63.5238C44.4953 63.5602 43.6139 63.397 42.7944 63.0903C41.977 62.7782 41.2137 62.3171 40.5838 61.7005C40.5066 61.6222 40.4272 61.5471 40.3544 61.4633C40.2794 61.3817 40.2066 61.3001 40.1404 61.2151C40.0003 61.0497 39.8767 60.8732 39.7521 60.6978C39.5138 60.3393 39.3087 59.9631 39.1355 59.576C38.9601 59.1888 38.8277 58.7851 38.7218 58.378C38.617 57.9699 38.5453 57.5551 38.5089 57.1393C38.4725 56.7223 38.4604 56.3043 38.4902 55.8884C38.5056 55.6821 38.5255 55.4703 38.552 55.2718C38.5762 55.071 38.6038 54.8714 38.6358 54.6728C38.7571 53.8764 38.9193 53.0932 39.0947 52.3145C39.4477 50.7569 39.8734 49.2214 40.3467 47.7014C40.3621 47.6529 40.4128 47.6264 40.4614 47.6419C40.511 47.654 40.5364 47.7014 40.5265 47.7477Z" fill="#E29727"/>
<path d="M152.544 67.8986C153.127 67.0537 153.828 66.2848 154.627 65.5976C155.431 64.9192 156.358 64.3302 157.438 63.9882C157.709 63.9088 157.982 63.8228 158.27 63.7665L158.485 63.7191C158.564 63.7081 158.642 63.6948 158.723 63.686C158.885 63.6706 159.051 63.6617 159.223 63.6695C159.566 63.686 159.932 63.7676 160.259 63.9364C160.588 64.103 160.874 64.3434 161.09 64.6093C161.143 64.6766 161.191 64.7449 161.241 64.8133C161.285 64.8828 161.329 64.9523 161.37 65.0229C161.407 65.0946 161.444 65.1641 161.48 65.238C161.516 65.3174 161.554 65.3924 161.581 65.4752C161.698 65.7984 161.764 66.147 161.731 66.5066C161.726 66.5518 161.723 66.5959 161.716 66.64C161.709 66.6841 161.699 66.7294 161.69 66.7724C161.673 66.8595 161.642 66.9467 161.613 67.0305C161.545 67.1982 161.456 67.3537 161.342 67.4839C161.115 67.7464 160.821 67.903 160.527 67.9416C160.471 67.9494 160.419 67.9097 160.411 67.8534C160.409 67.8324 160.413 67.8126 160.42 67.7949L160.421 67.7916C160.542 67.5423 160.598 67.3151 160.589 67.1221C160.585 66.9301 160.524 66.7735 160.447 66.6279C160.371 66.4834 160.266 66.3466 160.152 66.2231C160.125 66.1922 160.093 66.1624 160.065 66.1326L159.964 66.0344L159.863 65.944C159.829 65.9175 159.797 65.8888 159.764 65.8646C159.633 65.7653 159.514 65.6936 159.393 65.6296C159.274 65.5645 159.145 65.5105 158.99 65.4608C158.912 65.4344 158.826 65.4156 158.736 65.3991C158.691 65.3913 158.643 65.3869 158.596 65.3792L158.436 65.3737C158.221 65.3605 157.999 65.3781 157.778 65.4068L157.446 65.4653L157.114 65.548C157.003 65.5734 156.894 65.6142 156.782 65.6462C156.671 65.677 156.561 65.7201 156.45 65.7609C156.339 65.7995 156.227 65.8392 156.119 65.8877C156.01 65.9352 155.899 65.9771 155.791 66.0289L155.463 66.1823L155.14 66.3499C154.279 66.8088 153.459 67.3824 152.676 68.0222C152.636 68.0542 152.578 68.0486 152.545 68.01C152.522 67.9769 152.522 67.9317 152.544 67.8986Z" fill="#E29727"/>
<path d="M119.045 38.1566C119.81 38.4401 120.564 38.761 121.295 39.135C122.025 39.5122 122.732 39.9446 123.398 40.4366C124.734 41.4183 125.894 42.6383 126.891 43.9609C127.393 44.625 127.845 45.3387 128.237 46.0876C128.622 46.8388 128.943 47.6198 129.215 48.403C129.487 49.1873 129.724 49.9715 129.961 50.7481C130.021 50.94 130.079 51.1419 130.139 51.325L130.227 51.5931L130.325 51.8556C130.463 52.2031 130.623 52.5384 130.806 52.855C131.171 53.4903 131.647 54.0375 132.201 54.4478C132.479 54.653 132.781 54.8162 133.092 54.9486C133.402 55.0832 133.742 55.1791 134.078 55.242C134.414 55.3093 134.754 55.3369 135.08 55.3292C135.244 55.3258 135.404 55.3137 135.558 55.2905C135.713 55.2663 135.859 55.2288 135.999 55.1869C136.564 55.0104 136.967 54.6839 137.234 54.1676C137.297 54.0441 137.347 53.9261 137.379 53.7948C137.4 53.7308 137.407 53.6646 137.42 53.5984C137.425 53.5312 137.437 53.4639 137.436 53.3955C137.448 53.123 137.388 52.8417 137.276 52.5858C137.223 52.4546 137.144 52.3376 137.063 52.2251C136.98 52.1115 136.879 52.0199 136.763 51.9163C136.531 51.7354 136.276 51.6008 136.009 51.5611C135.742 51.5147 135.464 51.5611 135.203 51.6967C135.074 51.7684 134.95 51.86 134.837 51.9725C134.725 52.0927 134.612 52.2229 134.537 52.3619C134.456 52.4987 134.395 52.6454 134.373 52.791C134.354 52.9366 134.37 53.08 134.43 53.219C134.489 53.3569 134.603 53.4837 134.748 53.5874C134.893 53.6955 135.076 53.7606 135.263 53.8257L135.275 53.8301C135.322 53.8466 135.347 53.8985 135.331 53.9459C135.318 53.9845 135.28 54.0088 135.242 54.0066C135.136 54.0033 135.025 54.0132 134.917 53.9933C134.863 53.9856 134.807 53.9801 134.752 53.968L134.586 53.9227C134.369 53.8477 134.151 53.7187 133.982 53.5201C133.811 53.3238 133.71 53.0612 133.682 52.802C133.654 52.5406 133.693 52.2858 133.762 52.0464C133.831 51.8037 133.947 51.5942 134.071 51.3857C134.206 51.1761 134.377 50.9842 134.575 50.8154C134.976 50.4823 135.514 50.2738 136.06 50.2705C136.609 50.2561 137.137 50.4359 137.58 50.6996C137.687 50.7713 137.795 50.8341 137.9 50.9191C137.952 50.961 138.005 51.0018 138.055 51.0459L138.2 51.1838C138.385 51.3747 138.556 51.5831 138.69 51.8137C138.963 52.2703 139.127 52.7932 139.164 53.3326C139.183 53.6017 139.17 53.8753 139.121 54.1445C139.079 54.4125 138.993 54.6805 138.891 54.9265C138.685 55.4053 138.37 55.8697 137.956 56.2304C137.545 56.5933 137.055 56.8525 136.56 57.0014C135.56 57.3014 134.571 57.232 133.666 57.0003C133.212 56.8768 132.778 56.7157 132.357 56.494C131.937 56.2767 131.541 56.0131 131.187 55.7075C130.833 55.402 130.518 55.0589 130.24 54.6971C129.961 54.3353 129.722 53.9503 129.521 53.5521C129.318 53.155 129.148 52.7458 129.008 52.3299L128.909 52.0166L128.822 51.7012C128.767 51.4938 128.721 51.3041 128.671 51.1044C128.473 50.3168 128.278 49.5347 128.057 48.7714C127.842 48.0048 127.59 47.2635 127.276 46.5476C126.957 45.835 126.58 45.1467 126.142 44.486C125.278 43.1502 124.26 41.9136 123.046 40.8778C122.442 40.3583 121.787 39.8928 121.104 39.4725C120.421 39.0478 119.706 38.6706 118.972 38.3264C118.927 38.3055 118.907 38.2503 118.928 38.2051C118.951 38.1599 119.001 38.14 119.045 38.1566Z" fill="#E29727"/>
<path d="M100.698 42.785C103.198 41.9787 105.707 41.158 108.344 40.6947C109.004 40.5833 109.67 40.4973 110.345 40.4454C111.031 40.3969 111.726 40.4057 112.422 40.4907C113.118 40.5789 113.814 40.7499 114.485 41.0268C115.154 41.3058 115.799 41.6974 116.346 42.217C116.62 42.4762 116.871 42.7619 117.091 43.0718C117.319 43.3961 117.509 43.7546 117.645 44.1297C117.919 44.8809 117.997 45.7071 117.849 46.5145C117.776 46.9183 117.638 47.3143 117.446 47.6882C117.254 48.061 116.991 48.4074 116.695 48.6986C116.096 49.2843 115.349 49.6693 114.561 49.848C113.774 50.0267 112.935 50.0035 112.152 49.73C111.757 49.5866 111.392 49.3858 111.072 49.1222C110.912 48.9909 110.762 48.8442 110.627 48.6843C110.493 48.521 110.371 48.3445 110.272 48.1504C110.071 47.7665 109.969 47.3065 110.02 46.8598C110.047 46.6182 110.125 46.3932 110.235 46.2013C110.344 46.0082 110.483 45.8461 110.636 45.7082C110.945 45.4379 111.316 45.2636 111.706 45.2173C111.901 45.1953 112.099 45.2041 112.286 45.2548C112.471 45.3067 112.642 45.4004 112.774 45.5229C112.812 45.5571 112.814 45.6166 112.78 45.6541C112.754 45.6817 112.716 45.6905 112.683 45.6795L112.678 45.6784C112.081 45.4843 111.528 45.8505 111.262 46.2741C111.127 46.4881 111.075 46.7219 111.112 46.8929C111.145 47.1036 111.241 47.2988 111.384 47.4731C111.672 47.8206 112.149 48.082 112.615 48.1713C112.853 48.2188 113.107 48.2342 113.357 48.2155C113.607 48.2011 113.857 48.1493 114.098 48.0732C114.58 47.9209 115.027 47.6617 115.372 47.3319C115.546 47.1675 115.691 46.9888 115.814 46.7848C115.94 46.5829 116.034 46.3579 116.104 46.1218C116.244 45.6475 116.256 45.1158 116.125 44.6172C116.06 44.368 115.964 44.1275 115.829 43.9058C115.684 43.6686 115.516 43.4447 115.326 43.2406C114.944 42.8292 114.47 42.4938 113.942 42.2346C113.413 41.9765 112.834 41.7945 112.233 41.6754C111.631 41.5551 111.009 41.4989 110.383 41.4967C109.746 41.4978 109.103 41.5331 108.46 41.5893C105.883 41.8199 103.318 42.4277 100.743 42.9604C100.693 42.9704 100.645 42.9384 100.635 42.8898C100.626 42.8446 100.654 42.7994 100.698 42.785Z" fill="#E29727"/>
<path d="M121.391 47.6992C121.865 49.2193 122.29 50.7547 122.643 52.3123C122.82 53.091 122.981 53.8753 123.102 54.6706C123.133 54.8692 123.162 55.0688 123.186 55.2696C123.213 55.467 123.234 55.6799 123.248 55.8862C123.278 56.3021 123.266 56.7201 123.229 57.1371C123.193 57.554 123.121 57.9688 123.016 58.3758C122.91 58.7829 122.778 59.1866 122.603 59.5738C122.429 59.962 122.224 60.3382 121.986 60.6956C121.861 60.871 121.738 61.0475 121.598 61.2129C121.531 61.2979 121.46 61.3806 121.384 61.4611C121.311 61.545 121.231 61.62 121.154 61.6983C120.524 62.3149 119.761 62.776 118.944 63.0881C118.124 63.3937 117.243 63.557 116.344 63.5217C115.895 63.504 115.444 63.4356 114.999 63.3121C114.556 63.1863 114.123 62.9977 113.717 62.7539C112.905 62.2653 112.235 61.513 111.834 60.6404C111.631 60.2058 111.492 59.7425 111.421 59.2704C111.347 58.7983 111.336 58.3174 111.396 57.8397C111.412 57.7206 111.43 57.6015 111.453 57.4824L111.47 57.393L111.496 57.2882C111.512 57.2176 111.535 57.1492 111.556 57.0808C111.647 56.8073 111.779 56.5491 111.939 56.3164C112.261 55.8509 112.693 55.499 113.153 55.2564C113.614 55.0126 114.109 54.8747 114.604 54.8206C114.851 54.7931 115.099 54.7887 115.345 54.8063C115.585 54.8228 115.85 54.8615 116.094 54.9287C116.586 55.0644 117.035 55.2983 117.424 55.6016C117.809 55.9105 118.143 56.2877 118.37 56.7455C118.6 57.1955 118.719 57.7438 118.622 58.2777C118.575 58.5303 118.49 58.7663 118.371 58.9913C118.252 59.2142 118.092 59.4127 117.912 59.5793C117.546 59.9124 117.092 60.0977 116.645 60.1474C116.421 60.1727 116.199 60.1661 115.985 60.133C115.771 60.0966 115.566 60.0338 115.376 59.9433C115.33 59.9212 115.31 59.8661 115.332 59.8197C115.349 59.7845 115.385 59.7646 115.423 59.7668H115.426C115.62 59.7811 115.81 59.7811 115.993 59.7503C116.176 59.726 116.351 59.6764 116.514 59.608C116.838 59.4701 117.108 59.2572 117.278 59.0002C117.449 58.7454 117.525 58.4508 117.516 58.1596C117.507 57.8993 117.398 57.6445 117.227 57.4129C116.88 56.9496 116.291 56.6153 115.728 56.5348C115.459 56.4918 115.139 56.5105 114.85 56.5646C114.559 56.622 114.285 56.7301 114.053 56.8712C113.937 56.944 113.831 57.0224 113.738 57.1084C113.648 57.1956 113.568 57.2882 113.504 57.3831C113.443 57.4801 113.393 57.5783 113.358 57.682C113.351 57.7085 113.34 57.7338 113.335 57.7603L113.325 57.8L113.313 57.8563C113.296 57.9324 113.283 58.0085 113.271 58.0868C113.225 58.3968 113.215 58.7167 113.243 59.0322C113.273 59.3476 113.34 59.6587 113.446 59.9554C113.658 60.5478 114.045 61.0728 114.567 61.4479C114.827 61.6365 115.123 61.7832 115.436 61.8968C115.751 62.0071 116.087 62.0755 116.43 62.1086C117.118 62.1748 117.836 62.0855 118.516 61.8737C118.855 61.7645 119.185 61.6244 119.497 61.4534C119.811 61.2824 120.11 61.085 120.378 60.8533C120.645 60.625 120.892 60.3569 121.119 60.0713C121.341 59.7811 121.539 59.4712 121.712 59.1447C121.888 58.8193 122.027 58.4729 122.147 58.1199C122.267 57.7669 122.36 57.4018 122.421 57.0301C122.481 56.6595 122.521 56.2822 122.522 55.9039C122.524 55.5299 122.496 55.1372 122.457 54.7478C122.383 53.968 122.275 53.1848 122.149 52.4049C121.892 50.8452 121.579 49.2887 121.213 47.7456C121.201 47.697 121.231 47.6474 121.28 47.6352C121.33 47.6264 121.377 47.654 121.391 47.6992Z" fill="#E29727"/>
<path d="M77.6547 46.4285C77.0215 46.6954 76.3917 46.9679 75.7684 47.2514C75.1452 47.5327 74.5275 47.8239 73.9252 48.1371C72.7239 48.7637 71.5646 49.463 70.5796 50.3234C70.0931 50.747 69.6243 51.2268 69.2063 51.7221C68.7882 52.2196 68.4198 52.7425 68.123 53.2951C67.823 53.8455 67.5881 54.4213 67.427 55.0214C67.2638 55.6204 67.1711 56.2403 67.1336 56.8712C67.1237 57.0268 67.1192 57.1911 67.117 57.3423C67.1148 57.4901 67.1226 57.6357 67.1314 57.778C67.1523 58.0626 67.2075 58.3339 67.2858 58.5821C67.4458 59.0807 67.7138 59.4679 68.0723 59.7624C68.2521 59.9102 68.4551 60.0415 68.6812 60.154C68.7926 60.2124 68.9117 60.2643 69.0353 60.3139C69.096 60.3393 69.1588 60.3636 69.2228 60.3867C69.3022 60.4165 69.3066 60.4154 69.3519 60.4286C69.503 60.4695 69.7401 60.4937 69.9872 60.4871C70.2365 60.4827 70.5035 60.4529 70.7627 60.4011C71.0219 60.3514 71.2789 60.2775 71.4951 60.1838C71.6043 60.1396 71.7025 60.0911 71.7808 60.0448C71.8216 60.0216 71.8525 59.9996 71.879 59.983C71.9044 59.962 71.933 59.9422 71.9595 59.9179C72.0665 59.8231 72.1548 59.6686 72.211 59.4789C72.2629 59.2892 72.275 59.0652 72.2386 58.8479C72.2187 58.7398 72.1901 58.6328 72.1492 58.5292C72.1283 58.4784 72.1051 58.4277 72.0775 58.3802L72.0411 58.3163C72.0323 58.2964 72.018 58.2788 72.0058 58.2589C71.9 58.1078 71.697 57.9633 71.4499 57.8828C71.2039 57.7989 70.9182 57.7702 70.6414 57.8166C70.3656 57.8651 70.0931 57.9898 69.8946 58.2446L69.8902 58.2501C69.8493 58.303 69.7732 58.3119 69.7203 58.271C69.685 58.2435 69.6695 58.1993 69.6751 58.1585C69.7026 57.9666 69.7843 57.7747 69.9034 57.6048C70.0236 57.4371 70.1792 57.2893 70.3557 57.1757C70.7075 56.9429 71.1256 56.8216 71.5602 56.8051C71.9948 56.7929 72.4647 56.8889 72.8938 57.1724C72.9457 57.2099 72.9997 57.2441 73.0493 57.2871L73.1244 57.35L73.1894 57.4106C73.2755 57.4912 73.3549 57.5783 73.431 57.6688C73.5799 57.8519 73.709 58.0515 73.8083 58.2644C73.9086 58.4773 73.987 58.7023 74.0377 58.9362C74.0862 59.17 74.1116 59.4116 74.105 59.6587C74.0962 60.1507 73.9572 60.6702 73.6638 61.1335C73.5921 61.2504 73.5071 61.3596 73.4167 61.4644C73.3218 61.5692 73.2269 61.6641 73.1321 61.7457C72.9412 61.9123 72.7482 62.0479 72.5552 62.166C72.1658 62.3954 71.7731 62.5609 71.3694 62.6877C70.9657 62.8113 70.5509 62.8929 70.1152 62.9249C69.6784 62.9525 69.2206 62.9414 68.7077 62.8025C68.5863 62.7716 68.4286 62.7142 68.3481 62.6811C68.251 62.6436 68.155 62.6028 68.0591 62.5598C67.8671 62.4737 67.6774 62.3734 67.491 62.2619C67.1193 62.0391 66.7619 61.7623 66.4497 61.4313C66.1386 61.1004 65.8695 60.7199 65.6731 60.3139C65.4724 59.908 65.3433 59.4811 65.2617 59.0619C65.2231 58.8524 65.1955 58.6428 65.1801 58.4365C65.1668 58.2302 65.1613 58.0262 65.1624 57.8254C65.1668 57.6246 65.1756 57.4261 65.1955 57.2319C65.2154 57.0411 65.2363 56.8624 65.2628 56.6771C65.3654 55.9425 65.533 55.2078 65.7878 54.4985C66.0416 53.7893 66.3791 53.1076 66.7927 52.4843C67.2086 51.8622 67.6928 51.3007 68.2102 50.7933C68.7297 50.2859 69.2691 49.8281 69.8626 49.4035C71.0462 48.574 72.3279 47.9684 73.6263 47.4676C74.2771 47.2194 74.9334 46.9955 75.5919 46.787C76.2516 46.5807 76.9145 46.3899 77.5775 46.2035C77.6403 46.1858 77.7054 46.2222 77.7231 46.2851C77.7385 46.3458 77.7087 46.4053 77.6547 46.4285Z" fill="#E29727"/>
<path d="M77.3866 44.7518C76.1578 44.946 74.9499 45.2305 73.7597 45.5736C72.5695 45.9133 71.397 46.3127 70.2409 46.7517C69.086 47.1874 67.941 47.665 66.8281 48.1835C65.714 48.6986 64.6197 49.2656 63.5299 49.8568C62.4389 50.4448 61.3656 51.0834 60.2681 51.6989C59.9912 51.849 59.7143 52.0001 59.4342 52.1457C59.2996 52.2163 59.1397 52.2946 58.9852 52.3663C58.8286 52.4347 58.6731 52.5053 58.5142 52.5649C57.8822 52.8108 57.2335 52.9873 56.5794 53.1054C56.2518 53.1649 55.9231 53.2079 55.5955 53.2443C55.2657 53.273 54.937 53.2995 54.606 53.3039C53.9464 53.3194 53.2846 53.2819 52.6282 53.1804C51.973 53.0756 51.3211 52.9101 50.7023 52.6321C50.3956 52.4887 50.0956 52.3189 49.8297 52.0994C49.7625 52.0475 49.6996 51.9857 49.6378 51.9262C49.5749 51.8688 49.5187 51.8004 49.4635 51.7353C49.4062 51.6725 49.3631 51.5931 49.3157 51.5247C49.2694 51.453 49.2363 51.3724 49.1999 51.2985C49.1778 51.2533 49.1966 51.1982 49.2418 51.1761C49.276 51.1595 49.3168 51.1662 49.3433 51.1904L49.3521 51.1982C49.8011 51.603 50.3747 51.7464 50.9461 51.8346C51.5241 51.914 52.1142 51.9229 52.7021 51.8931C53.2912 51.8611 53.8791 51.7971 54.4604 51.6978C55.0418 51.6019 55.6175 51.4783 56.1801 51.3239C56.7438 51.1739 57.2942 50.9941 57.8248 50.7922C57.9572 50.7415 58.0884 50.6874 58.2186 50.6345C58.3477 50.576 58.4712 50.5275 58.6157 50.4591L59.4606 50.0818C60.5957 49.5866 61.7352 49.0758 62.8757 48.5508C64.0152 48.0257 65.1734 47.5194 66.3559 47.0638C67.545 46.6226 68.7408 46.2343 69.9519 45.8847C70.5586 45.7159 71.1664 45.5526 71.7797 45.4092C72.3919 45.2636 73.0063 45.128 73.6263 45.0165C74.244 44.8996 74.8672 44.807 75.4894 44.7264C76.1137 44.6514 76.7402 44.6007 77.3657 44.5698C77.4164 44.5676 77.4594 44.6062 77.4616 44.657C77.4638 44.7044 77.4308 44.7441 77.3855 44.7518H77.3866Z" fill="#E29727"/>
<path d="M77.3811 45.5449C76.0034 45.942 74.6588 46.4373 73.3428 46.9955C72.0246 47.5492 70.7351 48.1658 69.4754 48.8354C68.2168 49.5071 66.9825 50.2208 65.7923 50.9941C64.6032 51.7662 63.4505 52.5935 62.386 53.4936C61.3237 54.3827 60.3961 55.3832 59.6769 56.5072C58.9532 57.6301 58.4602 58.8733 58.1226 60.1882C57.7796 61.4942 57.602 62.8377 57.6384 64.1559C57.6571 64.8144 57.7288 65.4664 57.8568 66.0962C57.8888 66.2539 57.9274 66.4084 57.9649 66.5661L58.0973 67.0459C58.1943 67.3625 58.2936 67.678 58.4116 67.9847C58.6455 68.6002 58.9224 69.1936 59.2434 69.7562C59.5654 70.3188 59.9394 70.8449 60.3497 71.3292C60.7612 71.8123 61.2156 72.2502 61.7021 72.6319C61.8267 72.7234 61.9448 72.8238 62.0738 72.9077C62.2007 72.9937 62.322 73.082 62.4632 73.1658C62.5989 73.2507 62.7335 73.3368 62.8736 73.414L63.0798 73.5331L63.2894 73.6434C64.4013 74.2391 65.5827 74.624 66.7332 74.7299C67.3101 74.7829 67.8749 74.7707 68.4319 74.6726C68.5731 74.6461 68.7165 74.6262 68.8489 74.5887L69.0518 74.5402C69.1158 74.5192 69.1809 74.4994 69.2449 74.4806C69.3784 74.4464 69.4942 74.3913 69.6188 74.3483C69.6795 74.3251 69.7346 74.2942 69.7931 74.2689C69.8516 74.2424 69.91 74.217 69.9619 74.185C70.4053 73.9556 70.766 73.6511 71.0418 73.2618C71.3308 72.8801 71.5128 72.3914 71.6264 71.8553C71.7323 71.3325 71.7169 70.8207 71.5867 70.3353L71.5349 70.1533C71.5183 70.0915 71.4863 70.0375 71.4632 69.9779C71.4367 69.9205 71.4168 69.8588 71.3881 69.8014C71.3551 69.7463 71.3242 69.6911 71.2933 69.6338C71.2392 69.5146 71.1499 69.4165 71.0793 69.305C71.0451 69.2477 70.9944 69.2036 70.9513 69.1517L70.8179 68.9995L70.6667 68.8616C70.6149 68.8164 70.5697 68.7634 70.5112 68.7248C70.3987 68.6443 70.2939 68.5472 70.1682 68.4799L69.9861 68.3663C69.9233 68.331 69.8571 68.3035 69.7931 68.2704C69.7269 68.2406 69.664 68.202 69.5957 68.1766L69.3905 68.0983L69.2868 68.0575C69.2526 68.0442 69.2162 68.0376 69.1798 68.0266L68.9636 67.967C68.8941 67.9439 68.8125 67.9328 68.7353 67.9174L68.4992 67.871C68.4209 67.8589 68.3426 67.8501 68.2632 67.8402C68.1848 67.8313 68.1043 67.8148 68.0271 67.8137C67.8705 67.806 67.7116 67.7916 67.5561 67.7982C67.2406 67.7927 66.934 67.8369 66.6328 67.9041C66.3284 67.9681 66.0471 68.0917 65.7779 68.245C65.2374 68.5516 64.8172 69.0833 64.5789 69.7397L64.5778 69.7441C64.548 69.8257 64.4576 69.8676 64.3759 69.8378C64.3109 69.8147 64.2711 69.7518 64.2722 69.6867C64.2811 69.3061 64.3627 68.9179 64.5138 68.5439C64.6649 68.17 64.9021 67.8225 65.1955 67.5291C65.4867 67.2346 65.832 66.982 66.2048 66.8C66.5755 66.6147 66.9715 66.4735 67.3708 66.3874C67.5715 66.3345 67.7723 66.3124 67.9752 66.2815C68.0767 66.2639 68.1771 66.2617 68.2786 66.2528C68.3801 66.2462 68.4816 66.2363 68.583 66.2319L68.8853 66.2297C68.9868 66.2308 69.086 66.2264 69.193 66.2385L69.5107 66.265C69.5637 66.2705 69.6177 66.2727 69.6696 66.2815L69.8273 66.3091C70.6701 66.4492 71.504 66.7834 72.232 67.3151C72.3202 67.3846 72.4074 67.4574 72.4945 67.5302C72.5806 67.6041 72.6721 67.6714 72.7493 67.7563C72.9071 67.9218 73.0781 68.0773 73.2126 68.2659C73.2843 68.3564 73.3549 68.4491 73.4244 68.5428C73.4906 68.6377 73.548 68.7403 73.6086 68.8395C73.666 68.941 73.7333 69.0381 73.7818 69.144L73.9285 69.4639C74.308 70.3254 74.4315 71.2884 74.3565 72.1929C74.3356 72.4179 74.3003 72.6396 74.2672 72.8635C74.2539 72.9749 74.2197 73.0875 74.1966 73.1989L74.1569 73.3665L74.1061 73.5331C73.9748 73.9787 73.7895 74.42 73.5447 74.8347C73.2998 75.2473 73.0052 75.6411 72.66 75.9808C72.5784 76.0713 72.4846 76.1463 72.3964 76.229C72.307 76.3095 72.2166 76.3912 72.1206 76.4607C72.0257 76.5335 71.9309 76.6063 71.8349 76.6769L71.5382 76.8699C70.7351 77.3685 69.8692 77.6586 69.0265 77.8318C68.1694 78.0105 67.2814 78.0447 66.4254 77.9597C65.5684 77.8759 64.7355 77.6795 63.9546 77.3927C63.1725 77.1048 62.4378 76.7342 61.7473 76.3128C61.6613 76.2588 61.5752 76.2069 61.4903 76.1518L61.241 75.9819C61.0733 75.8705 60.9123 75.7514 60.7523 75.6322C60.5924 75.5175 60.4303 75.3841 60.2692 75.2539C60.106 75.127 59.957 74.9847 59.8026 74.8491C59.1959 74.2942 58.6565 73.6809 58.18 73.0323C57.7024 72.3837 57.2942 71.6943 56.9412 70.985C56.5872 70.2768 56.2937 69.5444 56.0577 68.7987C55.9352 68.427 55.836 68.0497 55.7411 67.6736L55.6142 67.1055C55.5767 66.9114 55.5392 66.7128 55.5084 66.5165C55.3881 65.7289 55.3429 64.9402 55.3583 64.1592C55.3925 62.5973 55.676 61.0684 56.1349 59.6124C56.5971 58.1651 57.2644 56.7323 58.1811 55.4847C59.0911 54.2305 60.2174 53.166 61.4164 52.2781C62.6132 51.3956 63.8608 50.6223 65.1359 49.9087C66.4122 49.1983 67.716 48.5464 69.0485 47.9606C70.3799 47.3738 71.7334 46.8432 73.1089 46.381C74.4867 45.9244 75.8865 45.5339 77.3061 45.246C77.39 45.2283 77.4727 45.2835 77.4892 45.3673C77.508 45.4434 77.4583 45.5217 77.3811 45.5449Z" fill="#E29727"/>
<path d="M80.8701 107.865C81.0698 103.052 85.2571 88.4996 87.7853 84.32C84.1496 81.7245 80.8701 76.486 80.8701 72.8889C80.8701 76.486 77.5907 81.7256 73.955 84.32C76.4832 88.4996 80.6716 103.052 80.8701 107.865Z" stroke="#E29727" stroke-width="1.66703" stroke-miterlimit="10" stroke-linecap="round" stroke-linejoin="round"/>
<path d="M79.4053 2.45902C79.4053 10.8379 79.4053 19.2169 79.4053 27.5947C79.4053 35.9306 79.4053 44.2665 79.4053 52.6024C79.4053 57.3048 79.4053 62.0071 79.4053 66.7095C79.4053 67.3637 80.0792 67.9891 80.8713 67.9593C81.6655 67.9295 82.3372 67.41 82.3372 66.7095C82.3372 58.3306 82.3372 49.9517 82.3372 41.5739C82.3372 33.238 82.3372 24.9021 82.3372 16.5662C82.3372 11.8638 82.3372 7.16141 82.3372 2.45902C82.3372 1.8049 81.6633 1.17946 80.8713 1.20924C80.0759 1.23903 79.4053 1.75747 79.4053 2.45902Z" stroke="#E29727" stroke-width="1.13011" stroke-miterlimit="10"/>
<path d="M84.1639 46.2057C84.8268 46.391 85.4887 46.5829 86.1494 46.7892C86.8079 46.9977 87.4643 47.2216 88.1151 47.4698C89.4134 47.9706 90.6952 48.5762 91.8788 49.4057C92.4722 49.8304 93.0116 50.2881 93.5312 50.7955C94.0485 51.303 94.5327 51.8644 94.9486 52.4865C95.3623 53.1098 95.6998 53.7915 95.9535 54.5008C96.2072 55.21 96.376 55.9458 96.4786 56.6793C96.505 56.8646 96.526 57.0433 96.5458 57.2342C96.5657 57.4283 96.5745 57.6269 96.5789 57.8276C96.5811 58.0284 96.5745 58.2324 96.5613 58.4387C96.5458 58.645 96.5183 58.8535 96.4797 59.0642C96.398 59.4833 96.269 59.9102 96.0682 60.3161C95.8708 60.7232 95.6016 61.1026 95.2917 61.4335C94.9795 61.7634 94.6221 62.0402 94.2504 62.2642C94.0639 62.3756 93.8742 62.4748 93.6823 62.562C93.5863 62.6061 93.4892 62.6469 93.3933 62.6833C93.3139 62.7164 93.1561 62.7749 93.0337 62.8047C92.5208 62.9426 92.063 62.9547 91.6262 62.9271C91.1893 62.8951 90.7757 62.8135 90.372 62.6899C89.9682 62.5631 89.5767 62.3976 89.1862 62.1682C88.992 62.0502 88.8001 61.9145 88.6093 61.7479C88.5144 61.6663 88.4195 61.5714 88.3247 61.4666C88.2342 61.3619 88.1493 61.2515 88.0776 61.1357C87.7842 60.6713 87.6452 60.1529 87.6364 59.6609C87.6308 59.4138 87.6551 59.1723 87.7036 58.9384C87.7544 58.7046 87.8327 58.4806 87.9331 58.2666C88.0324 58.0526 88.1614 57.853 88.3103 57.671C88.3853 57.5805 88.4659 57.4934 88.5519 57.4129L88.617 57.3522L88.692 57.2893C88.7416 57.2463 88.7957 57.211 88.8475 57.1746C89.2766 56.8911 89.7465 56.7951 90.1811 56.8073C90.6168 56.8238 91.0349 56.9452 91.3857 57.1779C91.5611 57.2915 91.7166 57.4393 91.8379 57.607C91.956 57.7769 92.0376 57.9688 92.0663 58.1607C92.0762 58.2269 92.0299 58.2887 91.9637 58.2986C91.9196 58.3052 91.8766 58.2865 91.8512 58.2534L91.8468 58.2479C91.6471 57.9931 91.3747 57.8673 91.0989 57.8199C90.8231 57.7725 90.5363 57.8011 90.2903 57.8861C90.0433 57.9666 89.8403 58.1111 89.7344 58.2622C89.7223 58.2821 89.7079 58.2997 89.6991 58.3196L89.6627 58.3836C89.6351 58.431 89.612 58.4817 89.591 58.5325C89.5502 58.6362 89.5204 58.7432 89.5016 58.8513C89.4652 59.0686 89.4774 59.2914 89.5292 59.4822C89.5855 59.6719 89.6726 59.8264 89.7807 59.9212C89.8061 59.9466 89.8348 59.9654 89.8612 59.9863C89.8877 60.0029 89.9186 60.0249 89.9594 60.0481C90.0377 60.0944 90.1359 60.143 90.2451 60.1871C90.4613 60.2808 90.7172 60.3547 90.9776 60.4044C91.2368 60.4562 91.5037 60.486 91.753 60.4904C92.0001 60.497 92.2373 60.4728 92.3884 60.432C92.4325 60.4198 92.4369 60.4198 92.5174 60.39C92.5814 60.368 92.6443 60.3437 92.705 60.3172C92.8285 60.2676 92.9465 60.2158 93.059 60.1573C93.2852 60.0437 93.4881 59.9135 93.6679 59.7657C94.0264 59.4712 94.2945 59.084 94.4544 58.5854C94.5316 58.3372 94.5879 58.0659 94.6089 57.7813C94.6188 57.639 94.6254 57.4934 94.6232 57.3456C94.621 57.1933 94.6177 57.0301 94.6067 56.8746C94.5692 56.2436 94.4765 55.6237 94.3132 55.0247C94.1511 54.4257 93.9172 53.8488 93.6172 53.2984C93.3205 52.7458 92.952 52.2229 92.534 51.7254C92.1159 51.229 91.6471 50.7492 91.1607 50.3267C90.1756 49.4663 89.0163 48.767 87.8151 48.1405C87.2128 47.8272 86.5951 47.536 85.9718 47.2547C85.3497 46.9701 84.7187 46.6987 84.0856 46.4318C84.0249 46.4064 83.9973 46.3369 84.0227 46.2774C84.047 46.2178 84.1076 46.1891 84.1639 46.2057Z" fill="#E29727"/>
<path d="M84.3724 44.5698C84.9978 44.6007 85.6244 44.6514 86.2487 44.7264C86.8719 44.807 87.4941 44.8996 88.1118 45.0165C88.7306 45.128 89.3461 45.2636 89.9572 45.4092C90.5705 45.5526 91.1783 45.7159 91.785 45.8847C92.9962 46.2332 94.1919 46.6226 95.381 47.0638C96.5635 47.5183 97.7217 48.0257 98.8612 48.5508C100.001 49.0758 101.141 49.5866 102.276 50.0818L103.121 50.4591C103.266 50.5275 103.39 50.576 103.518 50.6345C103.649 50.6874 103.779 50.7415 103.912 50.7922C104.443 50.9952 104.993 51.1739 105.557 51.3239C106.119 51.4794 106.695 51.603 107.277 51.6978C107.858 51.796 108.446 51.86 109.035 51.8931C109.624 51.9229 110.214 51.914 110.791 51.8346C111.362 51.7453 111.936 51.6019 112.385 51.1982L112.394 51.1904C112.431 51.1562 112.49 51.1595 112.523 51.197C112.548 51.2257 112.552 51.2654 112.537 51.2985C112.501 51.3724 112.468 51.4541 112.421 51.5247C112.374 51.593 112.331 51.6725 112.273 51.7353C112.218 51.8004 112.162 51.8688 112.099 51.9262C112.037 51.9857 111.974 52.0475 111.907 52.0994C111.641 52.32 111.341 52.4887 111.035 52.6321C110.417 52.9112 109.764 53.0767 109.11 53.1804C108.455 53.2818 107.793 53.3194 107.132 53.3039C106.801 53.2995 106.472 53.2719 106.143 53.2443C105.814 53.2068 105.485 53.1638 105.159 53.1054C104.504 52.9873 103.857 52.8108 103.224 52.5649C103.065 52.5053 102.909 52.4347 102.753 52.3663C102.598 52.2946 102.437 52.2163 102.304 52.1457C102.024 52.0001 101.747 51.849 101.47 51.6989C100.372 51.0834 99.2991 50.4448 98.2082 49.8568C97.1183 49.2656 96.0241 48.6986 94.91 48.1835C93.797 47.6661 92.6531 47.1885 91.4971 46.7517C90.3411 46.3127 89.1685 45.9133 87.9783 45.5736C86.7881 45.2305 85.5802 44.9471 84.3514 44.7518H84.3503C84.3007 44.7441 84.2665 44.6967 84.2742 44.647C84.2852 44.6007 84.326 44.5676 84.3724 44.5698Z" fill="#E29727"/>
<path d="M84.433 45.2427C85.8527 45.5306 87.2525 45.9211 88.6302 46.3777C90.0069 46.8399 91.3603 47.3705 92.6906 47.9573C94.022 48.5431 95.3259 49.195 96.6032 49.9053C97.8784 50.619 99.1259 51.3923 100.323 52.2747C101.523 53.1627 102.648 54.2272 103.558 55.4814C104.475 56.73 105.142 58.1629 105.604 59.609C106.063 61.0662 106.347 62.594 106.381 64.1559C106.397 64.9369 106.351 65.7256 106.231 66.5132C106.201 66.7095 106.162 66.9081 106.125 67.1022L105.998 67.6703C105.903 68.0475 105.804 68.4237 105.681 68.7954C105.445 69.5411 105.152 70.2735 104.798 70.9817C104.445 71.691 104.037 72.3793 103.559 73.029C103.083 73.6787 102.543 74.2909 101.937 74.8458C101.782 74.9814 101.633 75.1237 101.47 75.2506C101.309 75.3796 101.148 75.5142 100.987 75.6289C100.826 75.7481 100.666 75.8672 100.498 75.9786L100.25 76.1485C100.165 76.2036 100.079 76.2566 99.993 76.3095C99.3024 76.7298 98.5678 77.1015 97.7857 77.3894C97.0036 77.6762 96.1719 77.8726 95.3148 77.9564C94.46 78.0413 93.5709 78.0071 92.7138 77.8284C91.8699 77.6542 91.0051 77.3652 90.2021 76.8666L89.9054 76.6735C89.8094 76.6029 89.7145 76.5301 89.6197 76.4573C89.5237 76.3867 89.4344 76.3062 89.3439 76.2257C89.2557 76.143 89.1619 76.068 89.0803 75.9775C88.7361 75.6378 88.4416 75.244 88.1956 74.8314C87.9507 74.4167 87.7654 73.9754 87.6342 73.5298L87.5834 73.3632L87.5437 73.1956C87.5194 73.0841 87.4863 72.9716 87.4731 72.8602C87.44 72.6363 87.4047 72.4146 87.3838 72.1896C87.3088 71.285 87.4323 70.3221 87.8118 69.4606L87.9585 69.1407C88.007 69.0348 88.0743 68.9366 88.1316 68.8362C88.1934 68.737 88.2497 68.6344 88.3159 68.5395C88.3853 68.4457 88.4559 68.3542 88.5276 68.2626C88.6633 68.074 88.8343 67.9185 88.9909 67.753C89.0681 67.6681 89.1608 67.6008 89.2457 67.5269C89.3329 67.4541 89.42 67.3824 89.5083 67.3118C90.2363 66.7801 91.0691 66.4459 91.913 66.3058L92.0707 66.2782C92.1236 66.2694 92.1766 66.2672 92.2295 66.2617L92.5472 66.2352C92.6542 66.2242 92.7535 66.2275 92.855 66.2264L93.1572 66.2286C93.2587 66.233 93.3602 66.2429 93.4617 66.2495C93.5632 66.2595 93.6624 66.2606 93.765 66.2782C93.968 66.3091 94.1687 66.3312 94.3695 66.3841C94.7699 66.4701 95.1648 66.6113 95.5354 66.7966C95.9083 66.9787 96.2524 67.2313 96.5448 67.5258C96.8382 67.8192 97.0753 68.1667 97.2265 68.5406C97.3765 68.9145 97.4581 69.3017 97.468 69.6834C97.4702 69.7705 97.4018 69.8422 97.3147 69.8444C97.2452 69.8466 97.1856 69.8025 97.1636 69.7418L97.1625 69.7374C96.9231 69.0811 96.5028 68.5494 95.9623 68.2428C95.6932 68.0895 95.4119 67.9659 95.1075 67.9019C94.8063 67.8346 94.4997 67.7905 94.1842 67.796C94.0298 67.7894 93.8698 67.8038 93.7132 67.8115C93.636 67.8126 93.5554 67.8291 93.4771 67.8379C93.3977 67.849 93.3205 67.8567 93.2411 67.8688L93.005 67.9152C92.9267 67.9306 92.8462 67.9416 92.7767 67.9648L92.5605 68.0244C92.5252 68.0354 92.4888 68.042 92.4535 68.0553L92.3498 68.0961L92.1446 68.1744C92.0762 68.1998 92.0133 68.2384 91.9472 68.2681C91.8821 68.3012 91.8159 68.3288 91.7541 68.3641L91.5721 68.4777C91.4464 68.545 91.3416 68.6421 91.2291 68.7226C91.1706 68.7612 91.1254 68.8142 91.0735 68.8594L90.9224 68.9973L90.7889 69.1495C90.7459 69.2013 90.6952 69.2455 90.661 69.3028C90.5893 69.4142 90.501 69.5124 90.447 69.6315C90.4161 69.6889 90.3852 69.7452 90.3521 69.7992C90.3223 69.8566 90.3025 69.9172 90.2771 69.9757C90.254 70.0353 90.222 70.0893 90.2054 70.1511L90.1536 70.3331C90.0234 70.8184 90.0069 71.3314 90.1139 71.8531C90.2264 72.3892 90.4095 72.8779 90.6985 73.2595C90.9754 73.6489 91.335 73.9534 91.7784 74.1828C91.8302 74.2159 91.8898 74.2402 91.9472 74.2666C92.0056 74.292 92.0608 74.3229 92.1214 74.3461C92.2472 74.3891 92.3619 74.4442 92.4954 74.4784C92.5605 74.4983 92.6244 74.517 92.6884 74.538L92.8914 74.5865C93.0238 74.624 93.1683 74.645 93.3083 74.6704C93.8643 74.7696 94.4302 74.7807 95.0071 74.7277C96.1576 74.6218 97.339 74.2369 98.4509 73.6412L98.6604 73.5309L98.8667 73.4118C99.0057 73.3356 99.1414 73.2496 99.2771 73.1636C99.4171 73.0797 99.5385 72.9915 99.6664 72.9054C99.7955 72.8227 99.9135 72.7223 100.038 72.6297C100.525 72.248 100.979 71.8101 101.391 71.327C101.801 70.8427 102.175 70.3166 102.497 69.754C102.818 69.1914 103.095 68.598 103.329 67.9824C103.447 67.6758 103.546 67.3603 103.643 67.0437L103.775 66.5639C103.813 66.4062 103.851 66.2528 103.883 66.094C104.011 65.463 104.083 64.8122 104.102 64.1537C104.138 62.8355 103.961 61.492 103.618 60.186C103.28 58.87 102.787 57.6268 102.063 56.505C101.345 55.381 100.418 54.3805 99.3543 53.4914C98.2898 52.5913 97.1371 51.764 95.948 50.9919C94.7578 50.2186 93.5234 49.5049 92.2648 48.8332C91.0051 48.1636 89.7156 47.5481 88.3975 46.9932C87.0815 46.4362 85.7358 45.9398 84.3591 45.5427C84.2764 45.5195 84.229 45.4324 84.2521 45.3497C84.2753 45.2736 84.3547 45.2261 84.433 45.2427Z" fill="#E29727"/>
<path d="M110.82 63.9695C110.66 64.3147 110.495 64.6512 110.357 64.9975C110.214 65.3395 110.083 65.6825 109.978 66.0256C109.767 66.7128 109.638 67.3923 109.635 68.0486C109.63 68.3785 109.657 68.6972 109.708 69.0226C109.755 69.347 109.824 69.6624 109.917 69.9625C110.004 70.2636 110.118 70.5493 110.249 70.814C110.378 71.0788 110.528 71.3248 110.697 71.5354C110.865 71.7472 111.062 71.9182 111.264 72.0362C111.367 72.0925 111.467 72.141 111.566 72.1719C111.663 72.2083 111.758 72.2271 111.845 72.2414C112.022 72.2657 112.16 72.2756 112.298 72.2833C112.366 72.2933 112.437 72.2932 112.512 72.3065C112.55 72.3054 112.59 72.3153 112.632 72.3164L112.755 72.3263L112.966 72.3506C113.03 72.3594 113.089 72.3694 113.148 72.3749C113.265 72.387 113.408 72.3848 113.572 72.2944C113.735 72.2072 113.9 72.0351 114.014 71.7914C114.124 71.5465 114.196 71.2321 114.059 70.8284L114.048 70.7975C114.01 70.685 114.07 70.5625 114.183 70.5239C114.203 70.5173 114.223 70.514 114.242 70.5129C114.498 70.5008 114.764 70.5835 115 70.7269C115.24 70.8703 115.446 71.0744 115.611 71.3126C115.941 71.7902 116.096 72.4025 116.043 73.0345C115.992 73.6666 115.704 74.3163 115.251 74.8193C115.027 75.0741 114.764 75.2848 114.491 75.4591C114.353 75.5495 114.213 75.619 114.07 75.6918C113.929 75.7536 113.784 75.8187 113.642 75.865C113.571 75.8882 113.498 75.9135 113.427 75.9334C113.357 75.9532 113.285 75.9698 113.214 75.9874C113.072 76.0227 112.922 76.0426 112.774 76.0635C112.474 76.0922 112.168 76.0999 111.862 76.0591C111.25 75.9885 110.663 75.7569 110.17 75.4381C109.68 75.1127 109.277 74.7134 108.954 74.292C108.632 73.8695 108.38 73.4316 108.169 72.9926C107.751 72.1123 107.559 71.199 107.516 70.3132C107.499 69.8687 107.518 69.4319 107.571 69.0039C107.625 68.577 107.713 68.1435 107.837 67.7321C108.091 66.9037 108.489 66.1558 108.958 65.5028C109.194 65.1751 109.445 64.8696 109.705 64.5762C109.97 64.2861 110.244 64.0103 110.526 63.7478C110.601 63.6783 110.719 63.6827 110.789 63.7577C110.842 63.8151 110.852 63.8956 110.821 63.9618L110.82 63.9695Z" fill="#E29727"/>
<path d="M107.42 72.1057C107.029 72.8316 106.671 73.5596 106.406 74.2975C106.147 75.0366 105.982 75.7734 105.95 76.4971C105.93 76.86 105.945 77.2141 105.985 77.577C106.022 77.9377 106.082 78.2907 106.168 78.6304C106.248 78.9701 106.357 79.2978 106.486 79.6055C106.612 79.9133 106.765 80.2034 106.937 80.4615C107.11 80.7196 107.317 80.9391 107.538 81.1046C107.591 81.1487 107.65 81.1807 107.705 81.2193C107.762 81.2502 107.816 81.2866 107.872 81.312C107.982 81.3693 108.089 81.4123 108.193 81.4432C108.295 81.4752 108.39 81.5017 108.479 81.5182C108.567 81.5403 108.65 81.5524 108.729 81.569L108.973 81.6142C109.016 81.6208 109.06 81.6274 109.105 81.6352C109.152 81.6385 109.202 81.6495 109.242 81.6528C109.332 81.6672 109.404 81.676 109.471 81.6848C109.538 81.6947 109.601 81.7058 109.664 81.7102C109.788 81.7212 109.946 81.7036 110.121 81.5822C110.297 81.4642 110.465 81.2502 110.577 80.9689C110.685 80.6854 110.748 80.3391 110.614 79.9078L110.607 79.8813C110.572 79.7699 110.634 79.6507 110.746 79.6165C110.771 79.6088 110.798 79.6055 110.822 79.6077C111.091 79.6254 111.359 79.7368 111.594 79.9033C111.831 80.0699 112.031 80.2938 112.191 80.5486C112.508 81.0594 112.653 81.6958 112.582 82.3577C112.546 82.6886 112.451 83.025 112.299 83.346C112.145 83.6659 111.934 83.9693 111.678 84.2296C111.165 84.7546 110.496 85.0889 109.868 85.2466C109.707 85.2907 109.553 85.3161 109.396 85.3415C109.317 85.3547 109.237 85.3591 109.156 85.3668C109.076 85.3735 108.996 85.3823 108.915 85.3812C108.59 85.3889 108.26 85.3591 107.941 85.2896C107.299 85.1506 106.705 84.8528 106.224 84.4723C105.745 84.0862 105.358 83.6416 105.058 83.1773C104.755 82.714 104.519 82.2396 104.324 81.7664C104.131 81.2921 103.994 80.8112 103.9 80.3313C103.808 79.8504 103.763 79.3717 103.753 78.8984C103.747 77.9509 103.874 77.0343 104.157 76.143C104.443 75.2583 104.88 74.4531 105.398 73.7526C105.659 73.403 105.936 73.0742 106.224 72.761C106.518 72.4521 106.819 72.1576 107.131 71.8785C107.207 71.8101 107.324 71.8167 107.392 71.8929C107.445 71.9524 107.453 72.0374 107.418 72.1035L107.42 72.1057Z" fill="#E29727"/>
<path d="M102.635 79.3606C102.059 80.0092 101.512 80.67 101.056 81.3627C100.605 82.0576 100.244 82.7746 100.022 83.5115C99.908 83.881 99.8297 84.2505 99.7757 84.6333C99.7194 85.0149 99.6874 85.3944 99.6874 85.7672C99.6808 86.139 99.7062 86.5052 99.7591 86.8571C99.8098 87.209 99.8904 87.5465 100.002 87.8587C100.111 88.1708 100.27 88.451 100.454 88.6793C100.638 88.9099 100.847 89.0798 101.042 89.1989C101.139 89.2585 101.232 89.3103 101.321 89.35C101.408 89.3952 101.493 89.4272 101.576 89.4636C101.659 89.4989 101.742 89.5309 101.832 89.5673L101.973 89.6181C102.023 89.6324 102.074 89.6534 102.12 89.6644C102.215 89.6975 102.297 89.7206 102.373 89.7405C102.451 89.7615 102.525 89.7824 102.6 89.7923C102.747 89.8155 102.93 89.81 103.143 89.7085C103.356 89.6103 103.577 89.4195 103.752 89.1515C103.924 88.8812 104.062 88.5404 104.014 88.0749L104.01 88.0484C103.998 87.9337 104.082 87.8311 104.197 87.8189C104.225 87.8156 104.255 87.8189 104.282 87.8278C104.549 87.9127 104.791 88.0947 104.984 88.3231C105.18 88.5525 105.324 88.8305 105.419 89.1272C105.605 89.7228 105.586 90.3946 105.354 91.0366C105.123 91.6764 104.649 92.2809 104.022 92.6857C103.398 93.0927 102.658 93.2869 101.987 93.31C101.816 93.3189 101.653 93.3133 101.489 93.3034C101.407 93.3012 101.323 93.2869 101.241 93.278C101.158 93.267 101.075 93.2582 100.992 93.2405C100.661 93.1766 100.333 93.0762 100.022 92.935C99.3984 92.6526 98.8557 92.2147 98.452 91.7161C98.0494 91.2131 97.7592 90.6671 97.5629 90.1211C97.3632 89.5761 97.2353 89.0356 97.1559 88.5062C97.0764 87.9767 97.0544 87.4527 97.0775 86.942C97.1029 86.4313 97.1757 85.9316 97.2827 85.4485C97.3952 84.9653 97.5419 84.4987 97.7217 84.0487C97.9026 83.6008 98.1188 83.1563 98.3681 82.7426C98.8733 81.912 99.5109 81.1983 100.203 80.6016C100.551 80.3037 100.911 80.0324 101.277 79.7765C101.648 79.5261 102.024 79.2922 102.408 79.0749C102.497 79.0242 102.609 79.0562 102.659 79.1444C102.699 79.215 102.688 79.2999 102.637 79.3584L102.635 79.3606Z" fill="#E29727"/>
<path d="M96.2436 85.1815C95.3865 85.807 94.5581 86.4556 93.8246 87.1704C93.0954 87.8885 92.4568 88.6584 91.9791 89.5C91.7365 89.9192 91.5346 90.3505 91.3603 90.8017C91.1838 91.2517 91.0371 91.7073 90.9279 92.1662C90.8143 92.6228 90.7393 93.0817 90.7018 93.5329C90.6621 93.984 90.6643 94.4297 90.7106 94.8554C90.7933 95.7092 91.164 96.467 91.6074 96.9215C91.7155 97.0384 91.8247 97.141 91.935 97.2304C92.042 97.3252 92.1556 97.4002 92.2659 97.4774C92.3233 97.5127 92.3773 97.5535 92.438 97.5866C92.4943 97.6264 92.5582 97.6539 92.6178 97.6925C92.6818 97.7245 92.7458 97.7587 92.8131 97.7918C92.8825 97.8216 92.952 97.858 93.0171 97.8823C93.1506 97.9418 93.2763 97.9848 93.3966 98.0168C93.5179 98.0499 93.637 98.0775 93.7584 98.0863C94 98.1073 94.2746 98.0753 94.5713 97.9396C94.8681 97.8073 95.1703 97.5701 95.4141 97.2469C95.6557 96.9204 95.8498 96.5145 95.841 95.9651V95.9453C95.8388 95.8339 95.9281 95.7423 96.0384 95.7412C96.0803 95.7401 96.119 95.7522 96.1509 95.7732C96.4223 95.9497 96.6418 96.2244 96.7918 96.5376C96.9452 96.8509 97.0268 97.2028 97.051 97.5602C97.0952 98.2772 96.8966 99.0162 96.4852 99.6692C96.0748 100.321 95.4207 100.875 94.643 101.188C94.2559 101.348 93.8455 101.439 93.4385 101.48C93.2333 101.505 93.0337 101.503 92.8307 101.504C92.6344 101.492 92.4325 101.48 92.2428 101.45C92.0475 101.423 91.8644 101.381 91.6802 101.336C91.5875 101.316 91.496 101.282 91.4044 101.254C91.3129 101.223 91.2213 101.197 91.1309 101.158C90.7691 101.016 90.4183 100.832 90.0951 100.606C89.4498 100.152 88.9214 99.5424 88.5695 98.885L88.4416 98.6368L88.3302 98.3853C88.2541 98.2187 88.1989 98.0488 88.1382 97.8801C88.0335 97.5414 87.9474 97.2017 87.8956 96.8663C87.7831 96.1957 87.7577 95.5416 87.7875 94.9095C87.8161 94.2763 87.9099 93.663 88.0533 93.0718C88.1989 92.4805 88.3964 91.9136 88.6313 91.3697C88.8707 90.8281 89.1475 90.3108 89.4575 89.821C89.7686 89.3313 90.1205 88.857 90.5032 88.4223C91.2743 87.5498 92.1788 86.8394 93.1241 86.2647C93.5984 85.9779 94.0838 85.7242 94.5735 85.4893C95.0666 85.2598 95.5641 85.0514 96.0671 84.8616C96.162 84.8252 96.2679 84.8738 96.3043 84.9686C96.334 85.0481 96.3065 85.1352 96.2403 85.1826L96.2436 85.1815Z" fill="#E29727"/>
<path d="M51.2152 63.7522C51.4987 64.0147 51.7712 64.2905 52.0359 64.5806C52.2951 64.874 52.5477 65.1796 52.7838 65.5072C53.2526 66.1613 53.6508 66.9081 53.9045 67.7365C54.0291 68.149 54.1163 68.5826 54.1703 69.0083C54.2233 69.4363 54.242 69.8731 54.2255 70.3177C54.1825 71.2045 53.9905 72.1168 53.5725 72.997C53.3618 73.4361 53.1092 73.874 52.7871 74.2965C52.465 74.7178 52.0624 75.116 51.5715 75.4425C51.0784 75.7613 50.4916 75.993 49.8794 76.0636C49.5738 76.1044 49.2672 76.0978 48.9672 76.068C48.8193 76.047 48.6693 76.0272 48.527 75.9919C48.4553 75.9742 48.3847 75.9577 48.3141 75.9378C48.2435 75.918 48.1696 75.8926 48.099 75.8694C47.9578 75.8231 47.8111 75.758 47.671 75.6962C47.5276 75.6223 47.3887 75.5539 47.2508 75.4635C46.9772 75.2892 46.7147 75.0785 46.4908 74.8237C46.0374 74.3207 45.7495 73.671 45.6988 73.039C45.6458 72.4058 45.8002 71.7947 46.1301 71.3171C46.2955 71.0799 46.5018 70.8747 46.7412 70.7313C46.9772 70.5879 47.2442 70.5052 47.499 70.5173C47.6181 70.5228 47.7097 70.6232 47.7041 70.7424C47.703 70.7622 47.6997 70.7821 47.6931 70.8008L47.6821 70.8328C47.5453 71.2365 47.617 71.5509 47.7273 71.7958C47.8409 72.0396 48.0053 72.2116 48.1696 72.2988C48.3329 72.3881 48.4763 72.3915 48.5932 72.3793C48.6517 72.3738 48.7112 72.3639 48.7752 72.355L48.9859 72.3308L49.1095 72.3209C49.1525 72.3197 49.1911 72.3098 49.2297 72.3109C49.3047 72.2977 49.3764 72.2977 49.4437 72.2878C49.5816 72.28 49.7206 72.269 49.8959 72.2458C49.9831 72.2315 50.0779 72.2128 50.175 72.1763C50.2743 72.1455 50.3747 72.0969 50.4773 72.0407C50.6791 71.9226 50.8766 71.7517 51.0442 71.5399C51.213 71.3292 51.363 71.0832 51.4921 70.8185C51.6233 70.5537 51.7359 70.268 51.8241 69.9669C51.9179 69.6669 51.9863 69.3514 52.0337 69.0271C52.0833 68.7017 52.1098 68.3829 52.1065 68.0531C52.1032 67.3967 51.9741 66.7173 51.7634 66.03C51.6575 65.6859 51.5263 65.3439 51.384 65.002C51.245 64.6567 51.0817 64.3192 50.9218 63.9739L50.9207 63.9706C50.8777 63.878 50.9174 63.7676 51.0111 63.7246C51.0806 63.6871 51.1612 63.7026 51.2152 63.7522Z" fill="#E29727"/>
<path d="M54.6072 71.8785C54.9193 72.1575 55.2205 72.4521 55.5139 72.7609C55.8018 73.0742 56.0786 73.4029 56.3401 73.7526C56.8585 74.453 57.2953 75.2583 57.581 76.1429C57.8634 77.0342 57.9914 77.9509 57.9848 78.8984C57.9748 79.3716 57.9307 79.8515 57.838 80.3313C57.7443 80.8111 57.6075 81.2921 57.4145 81.7664C57.2192 82.2396 56.9832 82.7139 56.6798 83.1772C56.3798 83.6416 55.9926 84.0872 55.5139 84.4722C55.0329 84.8517 54.4395 85.1495 53.7975 85.2896C53.4776 85.3591 53.1478 85.3889 52.8235 85.3811C52.7419 85.3823 52.6624 85.3734 52.5819 85.3668C52.5025 85.3591 52.4209 85.3547 52.3426 85.3414C52.1848 85.3161 52.0315 85.2896 51.8704 85.2466C51.2417 85.0888 50.5732 84.7546 50.0603 84.2295C49.8044 83.9692 49.5926 83.6659 49.4393 83.346C49.287 83.025 49.1911 82.6886 49.1558 82.3576C49.0852 81.6947 49.2297 81.0593 49.5474 80.5486C49.7073 80.2949 49.9081 80.071 50.1441 79.9033C50.378 79.7356 50.6471 79.6253 50.9163 79.6077C51.0332 79.6 51.1336 79.6882 51.1413 79.8051C51.1435 79.8316 51.1402 79.857 51.1325 79.8801L51.1237 79.9077C50.9902 80.339 51.0531 80.6854 51.1612 80.9689C51.2726 81.2502 51.4413 81.4641 51.6167 81.5822C51.7921 81.7035 51.9499 81.7201 52.0745 81.7101C52.1374 81.7057 52.2003 81.6947 52.2675 81.6848C52.3348 81.6748 52.4076 81.6671 52.4959 81.6528C52.5356 81.6506 52.5874 81.6384 52.6327 81.6351C52.6779 81.6263 52.722 81.6208 52.765 81.6142L53.0088 81.5689C53.0893 81.5524 53.171 81.5414 53.2592 81.5182C53.3486 81.5016 53.4423 81.4741 53.5449 81.4432C53.6486 81.4112 53.7556 81.3693 53.8659 81.3119C53.9221 81.2866 53.9762 81.2501 54.0336 81.2193C54.0876 81.1807 54.1461 81.1487 54.2001 81.1045C54.4207 80.9391 54.6281 80.7196 54.8013 80.4615C54.9745 80.2033 55.1256 79.9143 55.2524 79.6055C55.3815 79.2977 55.4896 78.9701 55.5701 78.6304C55.6562 78.2906 55.7157 77.9376 55.7532 77.5769C55.793 77.2129 55.8084 76.8588 55.7885 76.497C55.7566 75.7745 55.5911 75.0366 55.3319 74.2975C55.0682 73.5606 54.7086 72.8315 54.3181 72.1057L54.317 72.1046C54.2685 72.0141 54.3027 71.9027 54.3921 71.8542C54.4671 71.8156 54.5509 71.8277 54.6072 71.8785Z" fill="#E29727"/>
<path d="M59.3338 79.076C59.7177 79.2933 60.0938 79.5272 60.4645 79.7776C60.8307 80.0335 61.1914 80.3049 61.5388 80.6027C62.2316 81.1995 62.868 81.9131 63.3733 82.7438C63.6225 83.1585 63.8387 83.603 64.0196 84.0498C64.1983 84.4987 64.3462 84.9664 64.4587 85.4496C64.5657 85.9327 64.6385 86.4324 64.6638 86.9431C64.687 87.4539 64.6649 87.9767 64.5855 88.5073C64.5061 89.0368 64.377 89.5773 64.1785 90.1222C63.9821 90.6671 63.692 91.2131 63.2894 91.7172C62.8857 92.2158 62.343 92.6537 61.7198 92.9361C61.4087 93.0784 61.08 93.1788 60.7491 93.2417C60.6663 93.2604 60.5836 93.2681 60.5009 93.2792C60.4181 93.288 60.3354 93.3023 60.2527 93.3045C60.0883 93.3134 59.9262 93.32 59.7541 93.3112C59.0834 93.288 58.3433 93.0939 57.7189 92.6868C57.0924 92.282 56.6169 91.6786 56.3875 91.0377C56.1559 90.3957 56.136 89.724 56.3224 89.1283C56.4173 88.8316 56.5607 88.5536 56.757 88.3242C56.9501 88.0947 57.1939 87.9138 57.4597 87.8289C57.57 87.7936 57.6869 87.8543 57.7222 87.9646C57.7311 87.9922 57.7344 88.0208 57.731 88.0484L57.7277 88.076C57.6792 88.5415 57.8171 88.8812 57.9892 89.1526C58.1646 89.4206 58.3852 89.6115 58.5981 89.7096C58.811 89.81 58.9941 89.8166 59.1419 89.7935C59.2169 89.7835 59.2908 89.7626 59.368 89.7416C59.4441 89.7218 59.5268 89.6986 59.6217 89.6655C59.6669 89.6545 59.7188 89.6324 59.7684 89.6192L59.9096 89.5684C59.999 89.5331 60.0828 89.5001 60.1655 89.4648C60.2483 89.4284 60.3332 89.3964 60.4203 89.3511C60.5097 89.3114 60.6012 89.2596 60.6994 89.2C60.8958 89.0809 61.1042 88.911 61.2874 88.6805C61.4716 88.4521 61.6304 88.172 61.7396 87.8598C61.8499 87.5476 61.9315 87.2101 61.9823 86.8582C62.0352 86.5063 62.0595 86.1412 62.054 85.7684C62.054 85.3955 62.022 85.0161 61.9657 84.6344C61.9117 84.2516 61.8334 83.8821 61.7198 83.5126C61.498 82.7757 61.1362 82.0587 60.6851 81.3638C60.2295 80.6711 59.6824 80.0114 59.1066 79.3617L59.1055 79.3606C59.0382 79.2845 59.0448 79.1676 59.1209 79.0992C59.1816 79.0452 59.2676 79.0385 59.3338 79.076Z" fill="#E29727"/>
<path d="M65.6698 84.8594C66.1728 85.0491 66.6703 85.2565 67.1634 85.4871C67.6532 85.7231 68.1385 85.9757 68.6128 86.2625C69.5582 86.8372 70.4627 87.5476 71.2337 88.4201C71.6165 88.8547 71.9684 89.329 72.2794 89.8188C72.5894 90.3086 72.8652 90.8259 73.1056 91.3675C73.3395 91.9113 73.538 92.4783 73.6836 93.0696C73.827 93.6608 73.9208 94.2752 73.9495 94.9073C73.9782 95.5393 73.9528 96.1934 73.8414 96.8641C73.7895 97.1994 73.7035 97.5381 73.5987 97.8778C73.538 98.0466 73.4829 98.2165 73.4068 98.383L73.2954 98.6345L73.1674 98.8827C72.8155 99.5402 72.2872 100.15 71.6419 100.604C71.3187 100.83 70.9679 101.014 70.6061 101.156C70.5167 101.195 70.4241 101.221 70.3325 101.252C70.241 101.28 70.1494 101.314 70.0568 101.334C69.8725 101.379 69.6894 101.422 69.4942 101.447C69.3045 101.478 69.1026 101.489 68.9062 101.501C68.7033 101.5 68.5036 101.503 68.2985 101.478C67.8914 101.436 67.48 101.346 67.0939 101.186C66.3173 100.874 65.6621 100.319 65.2518 99.667C64.8403 99.014 64.6418 98.2749 64.6859 97.558C64.7102 97.2006 64.7918 96.8498 64.9451 96.5354C65.0951 96.2232 65.3147 95.9475 65.586 95.771C65.6787 95.7103 65.8033 95.7368 65.864 95.8294C65.8872 95.8647 65.8971 95.9033 65.896 95.942V95.9618C65.8871 96.5111 66.0824 96.916 66.3229 97.2436C66.5666 97.5668 66.8689 97.8039 67.1656 97.9363C67.4634 98.072 67.7381 98.1029 67.9786 98.083C68.0999 98.0731 68.219 98.0466 68.3404 98.0135C68.4606 97.9815 68.5864 97.9385 68.7198 97.8789C68.7849 97.8558 68.8544 97.8183 68.9239 97.7885C68.9912 97.7554 69.0552 97.7212 69.1191 97.6892C69.1787 97.6517 69.2438 97.623 69.2989 97.5833C69.3596 97.5502 69.4137 97.5094 69.471 97.4741C69.5813 97.3958 69.6949 97.3219 69.8019 97.227C69.9134 97.1377 70.0226 97.0351 70.1296 96.9182C70.573 96.4637 70.9436 95.7059 71.0264 94.8521C71.0727 94.4263 71.0749 93.9807 71.0352 93.5295C70.9977 93.0773 70.9227 92.6184 70.809 92.1628C70.7009 91.704 70.5542 91.2484 70.3766 90.7983C70.2024 90.3483 69.9994 89.9159 69.7578 89.4967C69.2802 88.6562 68.6415 87.8862 67.9124 87.167C67.1788 86.4522 66.3504 85.8036 65.4934 85.1782L65.4923 85.1771C65.4106 85.1175 65.3919 85.0017 65.4525 84.9201C65.5066 84.855 65.5948 84.8307 65.6698 84.8594Z" fill="#E29727"/>
<path d="M35.8561 61.781C35.6145 62.5134 35.3564 63.2415 35.0729 63.9618C34.7872 64.681 34.4772 65.3925 34.1375 66.0929C33.4536 67.4894 32.6439 68.8462 31.6159 70.0606C30.5933 71.2762 29.3347 72.3241 27.9647 73.1305C26.6079 73.9434 25.2159 74.6009 23.9628 75.3962C23.3362 75.7911 22.7505 76.2257 22.231 76.7055C21.9695 76.9438 21.7291 77.1975 21.5062 77.4611C21.3926 77.5924 21.29 77.7292 21.183 77.8627C21.0827 78.0016 20.9823 78.1384 20.8918 78.2829C20.8444 78.3535 20.7992 78.4252 20.7562 78.498C20.7131 78.5708 20.6657 78.6414 20.6271 78.7164L20.5047 78.9392C20.4661 79.0098 20.4385 79.0683 20.4087 79.1367C20.2918 79.4014 20.2046 79.6938 20.1506 79.9971C20.0436 80.6016 20.0557 81.2535 20.23 81.8205C20.3127 82.1051 20.4396 82.3632 20.5984 82.5838C20.7595 82.8033 20.9569 82.9798 21.1974 83.11C21.4368 83.239 21.7224 83.3206 22.0368 83.3471C22.1151 83.3537 22.1957 83.3581 22.2773 83.3604C22.3545 83.3581 22.4317 83.3548 22.5067 83.346C22.6568 83.3284 22.799 83.2964 22.9325 83.2489C23.1984 83.1519 23.4234 82.9853 23.58 82.7459C23.7356 82.5088 23.8172 82.201 23.794 81.8911C23.7709 81.5833 23.6473 81.2733 23.4124 81.0582C23.1785 80.842 22.8266 80.7406 22.456 80.7692C22.4052 80.7737 22.3611 80.735 22.3567 80.6843C22.3534 80.6413 22.3799 80.6038 22.4185 80.5905C22.6104 80.5244 22.8189 80.4869 23.0351 80.4968C23.2513 80.5045 23.4741 80.5674 23.6716 80.6799C23.8701 80.7913 24.0444 80.9512 24.1801 81.1366C24.3158 81.323 24.4139 81.5348 24.4768 81.7576C24.5982 82.2032 24.5772 82.6985 24.3853 83.1486C24.2915 83.3736 24.1547 83.5854 23.9871 83.7674C23.8183 83.9494 23.6186 84.1027 23.4057 84.2219C22.9799 84.4667 22.5034 84.555 22.0633 84.6079C21.6099 84.6487 21.1191 84.6168 20.647 84.4502C20.1726 84.2924 19.7358 84.0001 19.3895 83.6416C19.042 83.282 18.7883 82.8574 18.6041 82.4216C18.2478 81.5425 18.1529 80.6093 18.2853 79.6971C18.3537 79.2415 18.4794 78.7881 18.6791 78.3513C18.7287 78.2443 18.7861 78.1296 18.8423 78.0336L19.0056 77.7546C19.0596 77.6619 19.1225 77.5736 19.181 77.4832L19.2703 77.3486L19.3663 77.2196C19.8715 76.5224 20.4892 75.9246 21.1444 75.4138C21.4732 75.159 21.8118 74.9241 22.1549 74.7046C22.499 74.4873 22.8487 74.2865 23.1973 74.0935C24.5959 73.3257 26.0244 72.7345 27.3481 72.0362C28.0088 71.6877 28.6376 71.3104 29.2377 70.8747C29.8355 70.4412 30.3937 69.9547 30.9132 69.4209C31.9556 68.3564 32.8392 67.1177 33.6146 65.8083C34.004 65.1542 34.3669 64.4813 34.7089 63.7974C35.053 63.1135 35.3773 62.4175 35.6851 61.7137C35.705 61.6674 35.759 61.6464 35.8053 61.6663C35.8495 61.6872 35.8704 61.7369 35.8561 61.781Z" fill="#E29727"/>
<path d="M126.056 61.7159C126.364 62.4197 126.688 63.1157 127.033 63.7996C127.374 64.4846 127.738 65.1564 128.127 65.8105C128.901 67.1188 129.786 68.3586 130.828 69.4231C131.348 69.9559 131.907 70.4434 132.504 70.8769C133.103 71.3115 133.731 71.6888 134.393 72.0385C135.717 72.7367 137.144 73.3279 138.544 74.0957C138.893 74.2898 139.242 74.4906 139.587 74.7068C139.93 74.9263 140.268 75.1612 140.597 75.416C141.252 75.9268 141.871 76.5246 142.375 77.2218L142.471 77.3508L142.56 77.4854C142.619 77.5759 142.682 77.6641 142.736 77.7568L142.899 78.0358C142.954 78.1329 143.013 78.2476 143.062 78.3535C143.262 78.7903 143.388 79.2426 143.456 79.6993C143.588 80.6115 143.494 81.5447 143.137 82.4239C142.953 82.8596 142.699 83.2842 142.352 83.6439C142.007 84.0035 141.569 84.2947 141.094 84.4524C140.622 84.619 140.131 84.651 139.678 84.6101C139.238 84.5583 138.761 84.4701 138.336 84.2241C138.123 84.1049 137.923 83.9516 137.754 83.7696C137.586 83.5865 137.45 83.3758 137.356 83.1508C137.164 82.7007 137.143 82.2043 137.265 81.7598C137.327 81.537 137.426 81.3252 137.561 81.1388C137.698 80.9535 137.871 80.7935 138.07 80.6821C138.268 80.5696 138.49 80.5067 138.706 80.499C138.922 80.488 139.132 80.5255 139.323 80.5928C139.37 80.6093 139.396 80.6622 139.379 80.7097C139.365 80.7505 139.325 80.7748 139.285 80.7715C138.916 80.7428 138.563 80.8443 138.329 81.0605C138.093 81.2745 137.969 81.5855 137.947 81.8933C137.924 82.2032 138.006 82.511 138.161 82.7482C138.317 82.9864 138.543 83.1541 138.809 83.2512C138.942 83.2997 139.085 83.3317 139.235 83.3482C139.31 83.3571 139.386 83.3615 139.464 83.3626C139.546 83.3615 139.626 83.3571 139.705 83.3493C140.019 83.3229 140.305 83.2412 140.544 83.1122C140.784 82.982 140.982 82.8044 141.143 82.586C141.302 82.3665 141.429 82.1073 141.511 81.8227C141.685 81.2557 141.698 80.6038 141.591 79.9993C141.537 79.696 141.45 79.4036 141.333 79.1389C141.303 79.0705 141.275 79.0121 141.237 78.9415L141.114 78.7186C141.075 78.6436 141.027 78.573 140.985 78.5002C140.942 78.4274 140.897 78.3557 140.85 78.2851C140.759 78.1406 140.659 78.0039 140.558 77.8649C140.452 77.7303 140.349 77.5935 140.235 77.4633C140.012 77.1997 139.772 76.946 139.51 76.7077C138.991 76.2279 138.405 75.7933 137.779 75.3984C136.526 74.6042 135.133 73.9457 133.777 73.1327C132.407 72.3264 131.149 71.2784 130.126 70.0629C129.097 68.8484 128.288 67.4905 127.604 66.0951C127.264 65.3947 126.954 64.6832 126.668 63.964C126.385 63.2437 126.127 62.5157 125.885 61.7832C125.87 61.7358 125.895 61.6839 125.944 61.6674C125.988 61.6508 126.038 61.6729 126.056 61.7159Z" fill="#E29727"/>
<path d="M88.7416 35.4055C93.6172 30.1461 101.002 34.3444 107.666 32.4857C113.482 30.8631 114.868 22.4125 122.892 19.9195C115.355 20.1313 105.236 21.1936 100.157 23.2574C92.7745 26.2578 89.5369 30.0402 88.7416 35.4055Z" stroke="#E29727" stroke-width="1.66703" stroke-miterlimit="10" stroke-linecap="round" stroke-linejoin="round"/>
<path d="M72.9997 35.4055C68.1242 30.1461 60.7391 34.3444 54.0755 32.4857C48.259 30.8631 46.8735 22.4125 38.8498 19.9195C46.386 20.1313 56.5055 21.1936 61.5841 23.2574C68.9669 26.2578 72.2044 30.0402 72.9997 35.4055Z" stroke="#E29727" stroke-width="1.66703" stroke-miterlimit="10" stroke-linecap="round" stroke-linejoin="round"/>
<path d="M88.6203 28.0734C88.7383 27.6542 88.8762 27.2406 89.0351 26.8324C89.1972 26.4254 89.3803 26.0261 89.5844 25.6356C89.9991 24.859 90.4955 24.1211 91.0603 23.4361C92.1965 22.0716 93.5841 20.9156 95.0964 19.9791C95.8531 19.5125 96.6374 19.0867 97.4427 18.7116C97.8442 18.5219 98.2523 18.3443 98.6638 18.1777L99.2837 17.9483L99.9036 17.7299C101.559 17.1618 103.222 16.6732 104.888 16.2077C105.722 15.9771 106.555 15.7455 107.389 15.5249L109.89 14.852C110.724 14.6292 111.558 14.4086 112.391 14.1935L113.018 14.0324C113.203 13.9762 113.379 13.9199 113.551 13.8537C113.895 13.7291 114.223 13.5989 114.52 13.4588C114.818 13.3176 115.087 13.1698 115.311 13.0088C115.535 12.8455 115.714 12.6723 115.855 12.4638C115.998 12.2565 116.101 11.9972 116.157 11.6807C116.173 11.6035 116.182 11.5163 116.188 11.438C116.186 11.4071 116.185 11.3762 116.185 11.3442C116.18 11.3133 116.177 11.2814 116.175 11.2494C116.156 11.1214 116.117 10.9912 116.055 10.8633C115.933 10.6052 115.724 10.3559 115.456 10.1573C115.321 10.058 115.172 9.97201 115.013 9.90141C114.855 9.82971 114.686 9.76905 114.509 9.73264C113.803 9.56939 112.99 9.7161 112.262 10.1485L112.261 10.1496C112.2 10.186 112.119 10.1662 112.083 10.1044C112.054 10.0558 112.061 9.99628 112.094 9.95546C112.377 9.60689 112.736 9.29583 113.163 9.07411C113.375 8.96601 113.603 8.87115 113.841 8.80937C114.079 8.7476 114.327 8.70789 114.58 8.69686C115.085 8.6759 115.604 8.76636 116.093 8.97263C116.58 9.18111 117.04 9.50982 117.397 9.96649C117.575 10.1948 117.725 10.4541 117.834 10.7364L117.908 10.9526C117.928 11.0265 117.947 11.1005 117.964 11.1755C117.998 11.31 118.035 11.4358 118.059 11.5737C118.114 11.8439 118.134 12.1307 118.125 12.4263C118.116 12.722 118.061 13.0231 117.974 13.3176C117.886 13.6121 117.753 13.8945 117.598 14.156C117.441 14.4185 117.252 14.6534 117.053 14.8674C116.853 15.0825 116.634 15.2667 116.411 15.4333C116.185 15.5955 115.954 15.7378 115.718 15.8591C115.247 16.1029 114.764 16.2705 114.284 16.3842C114.045 16.4404 113.801 16.4834 113.568 16.5231L112.936 16.6412L110.41 17.1177C109.57 17.2821 108.729 17.4453 107.893 17.6229C107.057 17.8016 106.222 17.9825 105.39 18.1755C103.728 18.5605 102.071 18.9675 100.452 19.443L99.8473 19.625L99.2495 19.8158C98.8546 19.9449 98.4564 20.0673 98.067 20.2129C97.2838 20.4931 96.5205 20.8207 95.7759 21.1902C94.2934 21.9348 92.8925 22.8581 91.7001 24.0262C91.1011 24.6053 90.5562 25.244 90.0797 25.9367C89.8436 26.2842 89.6186 26.6416 89.4156 27.0122C89.2149 27.384 89.0317 27.7678 88.8663 28.1594L88.8652 28.1605C88.8376 28.2267 88.7615 28.2565 88.6964 28.2289C88.6335 28.2013 88.6027 28.1352 88.6203 28.0734Z" fill="#E29727"/>
<path d="M87.6882 27.8506C88.0169 26.1055 88.5486 24.3759 89.3704 22.7577C89.783 21.9514 90.2694 21.1781 90.8099 20.4468C91.3559 19.7188 91.9604 19.0349 92.5903 18.3851C93.2223 17.741 93.8566 17.1067 94.4942 16.489C95.1328 15.8713 95.7969 15.2977 96.462 14.7428C97.125 14.1858 97.7802 13.6353 98.3681 13.0375C98.6627 12.7385 98.9384 12.4264 99.1778 12.0866C99.4194 11.7469 99.6168 11.3762 99.7492 10.9516V10.9505C99.7613 10.9107 99.8043 10.8887 99.8441 10.9008C99.8716 10.9096 99.8904 10.9328 99.8959 10.9593C99.9808 11.4204 99.9213 11.9134 99.7845 12.3723C99.6477 12.8334 99.4348 13.2647 99.1921 13.6684C98.7013 14.4748 98.0924 15.1741 97.4603 15.8205C96.8261 16.468 96.1466 17.046 95.4494 17.5898C94.7512 18.1314 94.054 18.6631 93.4032 19.2389C92.7557 19.8136 92.138 20.4148 91.571 21.0634C90.9985 21.7065 90.4724 22.3926 90.0091 23.1239C89.0704 24.5811 88.3821 26.2081 87.8305 27.8881C87.8184 27.9267 87.7765 27.9477 87.7379 27.9355C87.7026 27.9223 87.6816 27.8859 87.6882 27.8506Z" fill="#E29727"/>
<path d="M72.8773 28.1561C72.7118 27.7634 72.5287 27.3807 72.328 27.0089C72.125 26.6383 71.9 26.2809 71.6639 25.9334C71.1874 25.2407 70.6425 24.602 70.0435 24.0229C68.8511 22.8559 67.4502 21.9315 65.9677 21.1869C65.2242 20.8174 64.4598 20.4898 63.6766 20.2096C63.2872 20.0651 62.889 19.9416 62.4941 19.8125L61.8962 19.6217L61.2918 19.4397C59.6725 18.9654 58.0156 18.5572 56.3533 18.1722C55.5216 17.9792 54.6866 17.7972 53.8504 17.6196C53.0143 17.442 52.1738 17.2788 51.3332 17.1144L48.8072 16.6379L48.1752 16.5198C47.9424 16.4801 47.6997 16.4382 47.4593 16.3809C46.9794 16.2661 46.4963 16.0985 46.0253 15.8558C45.7892 15.7345 45.5587 15.5922 45.3325 15.43C45.1097 15.2634 44.8902 15.0792 44.6906 14.8641C44.4909 14.6501 44.3012 14.4152 44.1456 14.1527C43.9901 13.8901 43.8577 13.6088 43.7695 13.3143C43.6824 13.0198 43.6272 12.7187 43.6184 12.423C43.6096 12.1285 43.6294 11.8417 43.6846 11.5704C43.7088 11.4325 43.7452 11.3067 43.7794 11.1722C43.7971 11.0972 43.8147 11.0232 43.8357 10.9493L43.9096 10.7331C44.0188 10.4508 44.1688 10.1904 44.3464 9.9632C44.7038 9.50653 45.1638 9.17781 45.6502 8.96933C46.14 8.76306 46.6584 8.67261 47.1636 8.69357C47.4162 8.7046 47.6633 8.74431 47.9027 8.80608C48.1421 8.86785 48.3682 8.96271 48.5811 9.07082C49.008 9.29253 49.3665 9.6025 49.65 9.95217C49.6952 10.0084 49.6875 10.0901 49.6312 10.1364C49.5871 10.1717 49.5275 10.175 49.4823 10.1474L49.4801 10.1463C48.7521 9.71391 47.9402 9.56609 47.2331 9.73045C47.0566 9.76796 46.8879 9.82752 46.729 9.89922C46.5702 9.96982 46.4213 10.057 46.2867 10.1551C46.0187 10.3548 45.8091 10.603 45.6877 10.8611C45.626 10.9891 45.5863 11.1203 45.5675 11.2472C45.5653 11.2792 45.5609 11.3111 45.5576 11.342C45.5576 11.374 45.5565 11.4049 45.5543 11.4358C45.5609 11.5141 45.5697 11.6013 45.5851 11.6785C45.6414 11.9951 45.744 12.2543 45.8874 12.4617C46.0275 12.6712 46.2073 12.8433 46.4312 13.0066C46.6551 13.1676 46.9243 13.3165 47.2221 13.4566C47.5199 13.5967 47.8475 13.7269 48.1917 13.8515C48.3638 13.9177 48.5392 13.974 48.7245 14.0302L49.351 14.1913C50.1861 14.4053 51.02 14.6259 51.8528 14.8498L54.3534 15.5227C55.1885 15.7444 56.0213 15.9749 56.8541 16.2055C58.5209 16.6721 60.1832 17.1607 61.8389 17.7277L62.4588 17.9461L63.0787 18.1756C63.4902 18.3421 63.8983 18.5186 64.2998 18.7094C65.1051 19.0845 65.8894 19.5092 66.6461 19.9769C68.1573 20.9134 69.5449 22.0694 70.6822 23.4339C71.247 24.1189 71.7433 24.8568 72.1581 25.6334C72.3633 26.0228 72.5453 26.4232 72.7074 26.8302C72.8663 27.2384 73.0042 27.6531 73.1222 28.0712C73.1409 28.1396 73.1012 28.2113 73.0328 28.23C72.97 28.2477 72.9038 28.2146 72.8795 28.1561H72.8773Z" fill="#E29727"/>
<path d="M73.9098 27.887C73.3582 26.2081 72.6699 24.5811 71.7312 23.1228C71.2679 22.3915 70.7418 21.7054 70.1693 21.0623C69.6023 20.4137 68.9846 19.8125 68.3371 19.2378C67.6862 18.662 66.9891 18.1292 66.2909 17.5887C65.5937 17.046 64.9142 16.4669 64.28 15.8194C63.6479 15.1719 63.039 14.4737 62.5482 13.6673C62.3055 13.2636 62.0926 12.8323 61.9558 12.3712C61.819 11.9123 61.7595 11.4193 61.8444 10.9582C61.8521 10.9174 61.8918 10.8898 61.9326 10.8975C61.9613 10.903 61.9834 10.9229 61.9911 10.9494V10.9505C62.1235 11.3751 62.3209 11.7458 62.5625 12.0855C62.8019 12.4253 63.0776 12.7374 63.3721 13.0364C63.9601 13.6342 64.6153 14.1847 65.2782 14.7417C65.9423 15.2965 66.6074 15.8701 67.2461 16.4879C67.8837 17.1067 68.518 17.741 69.15 18.384C69.7799 19.0337 70.3844 19.7177 70.9304 20.4457C71.472 21.177 71.9584 21.9503 72.3699 22.7566C73.1917 24.3748 73.7233 26.1044 74.0521 27.8495C74.0598 27.8892 74.0333 27.9278 73.9936 27.9355C73.9572 27.9432 73.9219 27.9212 73.9098 27.887Z" fill="#E29727"/>
</svg>
